{
    "asset" : {
        "copyright" : "Copyright 2020 Omabuarts Studio. For more info, visit https://omabuarts.com/license",
        "generator" : "Khronos glTF Blender I/O v1.1.46",
        "version" : "2.0"
    },
    "scene" : 0,
    "scenes" : [
        {
            "name" : "Scene",
            "nodes" : [
                9
            ]
        }
    ],
    "nodes" : [
        {
            "name" : "tail.01",
            "rotation" : [
                -0.25520288944244385,
                0.11562561243772507,
                -0.2669467628002167,
                0.9220855236053467
            ],
            "scale" : [
                1.0000001192092896,
                1,
                1
            ],
            "translation" : [
                1.3292591916069796e-07,
                0.47247952222824097,
                -0.2039836347103119
            ]
        },
        {
            "name" : "tail.02",
            "rotation" : [
                -0.5422747135162354,
                0.1271696239709854,
                -0.18314601480960846,
                0.8100762963294983
            ],
            "scale" : [
                1,
                0.9999999403953552,
                1.000000238418579
            ],
            "translation" : [
                1.9388424732369458e-07,
                0.32647398114204407,
                -0.19758452475070953
            ]
        },
        {
            "name" : "fin.01",
            "rotation" : [
                -0.4105745553970337,
                6.169588839810558e-09,
                -9.2910752869102e-08,
                0.911827027797699
            ],
            "scale" : [
                1.0000001192092896,
                1,
                1
            ],
            "translation" : [
                4.796993380296044e-08,
                0.788679301738739,
                0.04983953759074211
            ]
        },
        {
            "name" : "fin.02",
            "rotation" : [
                -0.9021142721176147,
                4.895317040620739e-09,
                -2.2099821705978684e-07,
                0.4314972162246704
            ],
            "scale" : [
                1,
                0.9999998211860657,
                0.9999994039535522
            ],
            "translation" : [
                2.426285732326505e-07,
                0.004654746502637863,
                -0.08305061608552933
            ]
        },
        {
            "name" : "fin.L",
            "rotation" : [
                0.05686751753091812,
                0.27380284667015076,
                -0.8534504175186157,
                0.4397960305213928
            ],
            "scale" : [
                1.000000238418579,
                1.0000001192092896,
                1.000000238418579
            ],
            "translation" : [
                0.18943661451339722,
                0.11175280809402466,
                0.31135523319244385
            ]
        },
        {
            "name" : "fin.R",
            "rotation" : [
                -0.046801961958408356,
                -0.24005547165870667,
                0.816486120223999,
                0.5230042934417725
            ],
            "scale" : [
                0.9999997615814209,
                0.9999996423721313,
                0.9999994039535522
            ],
            "translation" : [
                -0.18943676352500916,
                0.11175280809402466,
                0.3113551139831543
            ]
        },
        {
            "children" : [
                0,
                1,
                2,
                3,
                4,
                5
            ],
            "name" : "body",
            "rotation" : [
                0.4987752139568329,
                0.5012220740318298,
                -0.5012218356132507,
                0.49877509474754333
            ],
            "scale" : [
                1.000000238418579,
                1.000000238418579,
                1
            ],
            "translation" : [
                -0.34929534792900085,
                0.16949112713336945,
                0.35161489248275757
            ]
        },
        {
            "children" : [
                6
            ],
            "name" : "root",
            "rotation" : [
                -0.7071068286895752,
                0,
                0,
                0.7071068286895752
            ]
        },
        {
            "mesh" : 0,
            "name" : "Goldfish",
            "skin" : 0
        },
        {
            "children" : [
                8,
                7
            ],
            "name" : "Rig"
        }
    ],
    "animations" : [
        {
            "channels" : [
                {
                    "sampler" : 0,
                    "target" : {
                        "node" : 7,
                        "path" : "translation"
                    }
                },
                {
                    "sampler" : 1,
                    "target" : {
                        "node" : 7,
                        "path" : "rotation"
                    }
                },
                {
                    "sampler" : 2,
                    "target" : {
                        "node" : 7,
                        "path" : "scale"
                    }
                },
                {
                    "sampler" : 3,
                    "target" : {
                        "node" : 6,
                        "path" : "translation"
                    }
                },
                {
                    "sampler" : 4,
                    "target" : {
                        "node" : 6,
                        "path" : "rotation"
                    }
                },
                {
                    "sampler" : 5,
                    "target" : {
                        "node" : 6,
                        "path" : "scale"
                    }
                },
                {
                    "sampler" : 6,
                    "target" : {
                        "node" : 0,
                        "path" : "translation"
                    }
                },
                {
                    "sampler" : 7,
                    "target" : {
                        "node" : 0,
                        "path" : "rotation"
                    }
                },
                {
                    "sampler" : 8,
                    "target" : {
                        "node" : 0,
                        "path" : "scale"
                    }
                },
                {
                    "sampler" : 9,
                    "target" : {
                        "node" : 1,
                        "path" : "translation"
                    }
                },
                {
                    "sampler" : 10,
                    "target" : {
                        "node" : 1,
                        "path" : "rotation"
                    }
                },
                {
                    "sampler" : 11,
                    "target" : {
                        "node" : 1,
                        "path" : "scale"
                    }
                },
                {
                    "sampler" : 12,
                    "target" : {
                        "node" : 2,
                        "path" : "translation"
                    }
                },
                {
                    "sampler" : 13,
                    "target" : {
                        "node" : 2,
                        "path" : "rotation"
                    }
                },
                {
                    "sampler" : 14,
                    "target" : {
                        "node" : 2,
                        "path" : "scale"
                    }
                },
                {
                    "sampler" : 15,
                    "target" : {
                        "node" : 3,
                        "path" : "translation"
                    }
                },
                {
                    "sampler" : 16,
                    "target" : {
                        "node" : 3,
                        "path" : "rotation"
                    }
                },
                {
                    "sampler" : 17,
                    "target" : {
                        "node" : 3,
                        "path" : "scale"
                    }
                },
                {
                    "sampler" : 18,
                    "target" : {
                        "node" : 4,
                        "path" : "translation"
                    }
                },
                {
                    "sampler" : 19,
                    "target" : {
                        "node" : 4,
                        "path" : "rotation"
                    }
                },
                {
                    "sampler" : 20,
                    "target" : {
                        "node" : 4,
                        "path" : "scale"
                    }
                },
                {
                    "sampler" : 21,
                    "target" : {
                        "node" : 5,
                        "path" : "translation"
                    }
                },
                {
                    "sampler" : 22,
                    "target" : {
                        "node" : 5,
                        "path" : "rotation"
                    }
                },
                {
                    "sampler" : 23,
                    "target" : {
                        "node" : 5,
                        "path" : "scale"
                    }
                }
            ],
            "name" : "Splash",
            "samplers" : [
                {
                    "input" : 7,
                    "interpolation" : "LINEAR",
                    "output" : 8
                },
                {
                    "input" : 7,
                    "interpolation" : "LINEAR",
                    "output" : 9
                },
                {
                    "input" : 7,
                    "interpolation" : "LINEAR",
                    "output" : 10
                },
                {
                    "input" : 7,
                    "interpolation" : "LINEAR",
                    "output" : 11
                },
                {
                    "input" : 7,
                    "interpolation" : "LINEAR",
                    "output" : 12
                },
                {
                    "input" : 7,
                    "interpolation" : "LINEAR",
                    "output" : 13
                },
                {
                    "input" : 7,
                    "interpolation" : "LINEAR",
                    "output" : 14
                },
                {
                    "input" : 7,
                    "interpolation" : "LINEAR",
                    "output" : 15
                },
                {
                    "input" : 7,
                    "interpolation" : "LINEAR",
                    "output" : 16
                },
                {
                    "input" : 7,
                    "interpolation" : "LINEAR",
                    "output" : 17
                },
                {
                    "input" : 7,
                    "interpolation" : "LINEAR",
                    "output" : 18
                },
                {
                    "input" : 7,
                    "interpolation" : "LINEAR",
                    "output" : 19
                },
                {
                    "input" : 7,
                    "interpolation" : "LINEAR",
                    "output" : 20
                },
                {
                    "input" : 7,
                    "interpolation" : "LINEAR",
                    "output" : 21
                },
                {
                    "input" : 7,
                    "interpolation" : "LINEAR",
                    "output" : 22
                },
                {
                    "input" : 7,
                    "interpolation" : "LINEAR",
                    "output" : 23
                },
                {
                    "input" : 7,
                    "interpolation" : "LINEAR",
                    "output" : 24
                },
                {
                    "input" : 7,
                    "interpolation" : "LINEAR",
                    "output" : 25
                },
                {
                    "input" : 7,
                    "interpolation" : "LINEAR",
                    "output" : 26
                },
                {
                    "input" : 7,
                    "interpolation" : "LINEAR",
                    "output" : 27
                },
                {
                    "input" : 7,
                    "interpolation" : "LINEAR",
                    "output" : 28
                },
                {
                    "input" : 7,
                    "interpolation" : "LINEAR",
                    "output" : 29
                },
                {
                    "input" : 7,
                    "interpolation" : "LINEAR",
                    "output" : 30
                },
                {
                    "input" : 7,
                    "interpolation" : "LINEAR",
                    "output" : 31
                }
            ]
        }
    ],
    "materials" : [
        {
            "doubleSided" : true,
            "emissiveFactor" : [
                0,
                0,
                0
            ],
            "name" : "Mat_Goldfish",
            "pbrMetallicRoughness" : {
                "baseColorTexture" : {
                    "index" : 0,
                    "texCoord" : 0
                },
                "metallicFactor" : 0,
                "roughnessFactor" : 0.5
            }
        }
    ],
    "meshes" : [
        {
            "name" : "Goldfish_LOD1",
            "primitives" : [
                {
                    "attributes" : {
                        "POSITION" : 0,
                        "NORMAL" : 1,
                        "TEXCOORD_0" : 2,
                        "JOINTS_0" : 3,
                        "WEIGHTS_0" : 4
                    },
                    "indices" : 5,
                    "material" : 0
                }
            ]
        }
    ],
    "textures" : [
        {
            "source" : 0
        }
    ],
    "images" : [
        {
            "bufferView" : 6,
            "mimeType" : "image/png",
            "name" : "Tex_Goldfish"
        }
    ],
    "skins" : [
        {
            "inverseBindMatrices" : 6,
            "joints" : [
                7,
                6,
                0,
                1,
                2,
                3,
                4,
                5
            ],
            "name" : "Rig"
        }
    ],
    "accessors" : [
        {
            "bufferView" : 0,
            "componentType" : 5126,
            "count" : 849,
            "max" : [
                0.3786715567111969,
                1.2618553638458252,
                0.8250606656074524
            ],
            "min" : [
                -0.3786715567111969,
                0.025539733469486237,
                -0.9841508865356445
            ],
            "type" : "VEC3"
        },
        {
            "bufferView" : 1,
            "componentType" : 5126,
            "count" : 849,
            "type" : "VEC3"
        },
        {
            "bufferView" : 2,
            "componentType" : 5126,
            "count" : 849,
            "type" : "VEC2"
        },
        {
            "bufferView" : 3,
            "componentType" : 5123,
            "count" : 849,
            "type" : "VEC4"
        },
        {
            "bufferView" : 4,
            "componentType" : 5126,
            "count" : 849,
            "type" : "VEC4"
        },
        {
            "bufferView" : 5,
            "componentType" : 5123,
            "count" : 2766,
            "type" : "SCALAR"
        },
        {
            "bufferView" : 7,
            "componentType" : 5126,
            "count" : 8,
            "type" : "MAT4"
        },
        {
            "bufferView" : 8,
            "componentType" : 5126,
            "count" : 11,
            "max" : [
                0.4166666666666667
            ],
            "min" : [
                0
            ],
            "type" : "SCALAR"
        },
        {
            "bufferView" : 9,
            "componentType" : 5126,
            "count" : 11,
            "type" : "VEC3"
        },
        {
            "bufferView" : 10,
            "componentType" : 5126,
            "count" : 11,
            "type" : "VEC4"
        },
        {
            "bufferView" : 11,
            "componentType" : 5126,
            "count" : 11,
            "type" : "VEC3"
        },
        {
            "bufferView" : 12,
            "componentType" : 5126,
            "count" : 11,
            "type" : "VEC3"
        },
        {
            "bufferView" : 13,
            "componentType" : 5126,
            "count" : 11,
            "type" : "VEC4"
        },
        {
            "bufferView" : 14,
            "componentType" : 5126,
            "count" : 11,
            "type" : "VEC3"
        },
        {
            "bufferView" : 15,
            "componentType" : 5126,
            "count" : 11,
            "type" : "VEC3"
        },
        {
            "bufferView" : 16,
            "componentType" : 5126,
            "count" : 11,
            "type" : "VEC4"
        },
        {
            "bufferView" : 17,
            "componentType" : 5126,
            "count" : 11,
            "type" : "VEC3"
        },
        {
            "bufferView" : 18,
            "componentType" : 5126,
            "count" : 11,
            "type" : "VEC3"
        },
        {
            "bufferView" : 19,
            "componentType" : 5126,
            "count" : 11,
            "type" : "VEC4"
        },
        {
            "bufferView" : 20,
            "componentType" : 5126,
            "count" : 11,
            "type" : "VEC3"
        },
        {
            "bufferView" : 21,
            "componentType" : 5126,
            "count" : 11,
            "type" : "VEC3"
        },
        {
            "bufferView" : 22,
            "componentType" : 5126,
            "count" : 11,
            "type" : "VEC4"
        },
        {
            "bufferView" : 23,
            "componentType" : 5126,
            "count" : 11,
            "type" : "VEC3"
        },
        {
            "bufferView" : 24,
            "componentType" : 5126,
            "count" : 11,
            "type" : "VEC3"
        },
        {
            "bufferView" : 25,
            "componentType" : 5126,
            "count" : 11,
            "type" : "VEC4"
        },
        {
            "bufferView" : 26,
            "componentType" : 5126,
            "count" : 11,
            "type" : "VEC3"
        },
        {
            "bufferView" : 27,
            "componentType" : 5126,
            "count" : 11,
            "type" : "VEC3"
        },
        {
            "bufferView" : 28,
            "componentType" : 5126,
            "count" : 11,
            "type" : "VEC4"
        },
        {
            "bufferView" : 29,
            "componentType" : 5126,
            "count" : 11,
            "type" : "VEC3"
        },
        {
            "bufferView" : 30,
            "componentType" : 5126,
            "count" : 11,
            "type" : "VEC3"
        },
        {
            "bufferView" : 31,
            "componentType" : 5126,
            "count" : 11,
            "type" : "VEC4"
        },
        {
            "bufferView" : 32,
            "componentType" : 5126,
            "count" : 11,
            "type" : "VEC3"
        }
    ],
    "bufferViews" : [
        {
            "buffer" : 0,
            "byteLength" : 10188,
            "byteOffset" : 0
        },
        {
            "buffer" : 0,
            "byteLength" : 10188,
            "byteOffset" : 10188
        },
        {
            "buffer" : 0,
            "byteLength" : 6792,
            "byteOffset" : 20376
        },
        {
            "buffer" : 0,
            "byteLength" : 6792,
            "byteOffset" : 27168
        },
        {
            "buffer" : 0,
            "byteLength" : 13584,
            "byteOffset" : 33960
        },
        {
            "buffer" : 0,
            "byteLength" : 5532,
            "byteOffset" : 47544
        },
        {
            "buffer" : 0,
            "byteLength" : 186,
            "byteOffset" : 53076
        },
        {
            "buffer" : 0,
            "byteLength" : 512,
            "byteOffset" : 53264
        },
        {
            "buffer" : 0,
            "byteLength" : 44,
            "byteOffset" : 53776
        },
        {
            "buffer" : 0,
            "byteLength" : 132,
            "byteOffset" : 53820
        },
        {
            "buffer" : 0,
            "byteLength" : 176,
            "byteOffset" : 53952
        },
        {
            "buffer" : 0,
            "byteLength" : 132,
            "byteOffset" : 54128
        },
        {
            "buffer" : 0,
            "byteLength" : 132,
            "byteOffset" : 54260
        },
        {
            "buffer" : 0,
            "byteLength" : 176,
            "byteOffset" : 54392
        },
        {
            "buffer" : 0,
            "byteLength" : 132,
            "byteOffset" : 54568
        },
        {
            "buffer" : 0,
            "byteLength" : 132,
            "byteOffset" : 54700
        },
        {
            "buffer" : 0,
            "byteLength" : 176,
            "byteOffset" : 54832
        },
        {
            "buffer" : 0,
            "byteLength" : 132,
            "byteOffset" : 55008
        },
        {
            "buffer" : 0,
            "byteLength" : 132,
            "byteOffset" : 55140
        },
        {
            "buffer" : 0,
            "byteLength" : 176,
            "byteOffset" : 55272
        },
        {
            "buffer" : 0,
            "byteLength" : 132,
            "byteOffset" : 55448
        },
        {
            "buffer" : 0,
            "byteLength" : 132,
            "byteOffset" : 55580
        },
        {
            "buffer" : 0,
            "byteLength" : 176,
            "byteOffset" : 55712
        },
        {
            "buffer" : 0,
            "byteLength" : 132,
            "byteOffset" : 55888
        },
        {
            "buffer" : 0,
            "byteLength" : 132,
            "byteOffset" : 56020
        },
        {
            "buffer" : 0,
            "byteLength" : 176,
            "byteOffset" : 56152
        },
        {
            "buffer" : 0,
            "byteLength" : 132,
            "byteOffset" : 56328
        },
        {
            "buffer" : 0,
            "byteLength" : 132,
            "byteOffset" : 56460
        },
        {
            "buffer" : 0,
            "byteLength" : 176,
            "byteOffset" : 56592
        },
        {
            "buffer" : 0,
            "byteLength" : 132,
            "byteOffset" : 56768
        },
        {
            "buffer" : 0,
            "byteLength" : 132,
            "byteOffset" : 56900
        },
        {
            "buffer" : 0,
            "byteLength" : 176,
            "byteOffset" : 57032
        },
        {
            "buffer" : 0,
            "byteLength" : 132,
            "byteOffset" : 57208
        }
    ],
    "buffers" : [
        {
            "byteLength" : 57340,
            "uri" : "data:application/octet-stream;base64,"
        }
    ]
}
