{
    "asset" : {
        "copyright" : "Copyright 2020 Omabuarts Studio. For more info, visit https://omabuarts.com/license",
        "generator" : "Khronos glTF Blender I/O v1.1.46",
        "version" : "2.0"
    },
    "scene" : 0,
    "scenes" : [
        {
            "name" : "Scene",
            "nodes" : [
                9
            ]
        }
    ],
    "nodes" : [
        {
            "name" : "wing.L",
            "rotation" : [
                -0.04396564140915871,
                0.249873086810112,
                -0.9662612080574036,
                0.04438313841819763
            ],
            "scale" : [
                1,
                0.9999999403953552,
                0.9999998211860657
            ],
            "translation" : [
                0.6191526651382446,
                0.9088585376739502,
                0.1508161872625351
            ]
        },
        {
            "name" : "wing.R",
            "rotation" : [
                -0.043966542929410934,
                -0.2498726099729538,
                0.9662612080574036,
                0.04438353702425957
            ],
            "scale" : [
                0.9999999403953552,
                0.9999998211860657,
                0.9999995231628418
            ],
            "translation" : [
                -0.6191527843475342,
                0.9088585376739502,
                0.15081588923931122
            ]
        },
        {
            "name" : "tail.01",
            "rotation" : [
                -0.9649868607521057,
                -3.126813297171793e-08,
                -1.1503527730383212e-07,
                0.262298583984375
            ],
            "scale" : [
                1,
                0.9999999403953552,
                0.9999994039535522
            ],
            "translation" : [
                1.0219737589522992e-07,
                0.40573906898498535,
                -0.42864686250686646
            ]
        },
        {
            "name" : "tail.02",
            "rotation" : [
                -0.9624260067939758,
                -3.237058976424123e-08,
                -1.1473007077711372e-07,
                0.27154403924942017
            ],
            "translation" : [
                8.988960331635099e-08,
                0.2612624168395996,
                -0.3770243227481842
            ]
        },
        {
            "children" : [
                0,
                1,
                2,
                3
            ],
            "name" : "body",
            "rotation" : [
                0.7071068286895752,
                8.429370268459024e-08,
                8.429370268459024e-08,
                0.7071068286895752
            ],
            "translation" : [
                -1.2108189073723434e-16,
                -0.02121073007583618,
                0.34963735938072205
            ]
        },
        {
            "name" : "feet.L",
            "rotation" : [
                -6.302857968876197e-08,
                -0.550494372844696,
                0.8348388671875,
                4.156117583420382e-08
            ],
            "translation" : [
                0.2445300668478012,
                -2.9802322387695312e-08,
                0.4453605115413666
            ]
        },
        {
            "name" : "feet.R",
            "rotation" : [
                -3.377900270606915e-08,
                0.894325852394104,
                -0.4474164545536041,
                6.75197284749629e-08
            ],
            "translation" : [
                -0.2445300668478012,
                -2.9802322387695312e-08,
                0.4453605115413666
            ]
        },
        {
            "children" : [
                4,
                5,
                6
            ],
            "name" : "root",
            "rotation" : [
                -0.7071068286895752,
                0,
                0,
                0.7071068286895752
            ],
            "scale" : [
                1,
                0.9999999403953552,
                1
            ]
        },
        {
            "mesh" : 0,
            "name" : "SnowOwl",
            "skin" : 0
        },
        {
            "children" : [
                8,
                7
            ],
            "name" : "Rig"
        }
    ],
    "animations" : [
        {
            "channels" : [
                {
                    "sampler" : 0,
                    "target" : {
                        "node" : 7,
                        "path" : "translation"
                    }
                },
                {
                    "sampler" : 1,
                    "target" : {
                        "node" : 7,
                        "path" : "rotation"
                    }
                },
                {
                    "sampler" : 2,
                    "target" : {
                        "node" : 7,
                        "path" : "scale"
                    }
                },
                {
                    "sampler" : 3,
                    "target" : {
                        "node" : 4,
                        "path" : "translation"
                    }
                },
                {
                    "sampler" : 4,
                    "target" : {
                        "node" : 4,
                        "path" : "rotation"
                    }
                },
                {
                    "sampler" : 5,
                    "target" : {
                        "node" : 4,
                        "path" : "scale"
                    }
                },
                {
                    "sampler" : 6,
                    "target" : {
                        "node" : 0,
                        "path" : "translation"
                    }
                },
                {
                    "sampler" : 7,
                    "target" : {
                        "node" : 0,
                        "path" : "rotation"
                    }
                },
                {
                    "sampler" : 8,
                    "target" : {
                        "node" : 0,
                        "path" : "scale"
                    }
                },
                {
                    "sampler" : 9,
                    "target" : {
                        "node" : 1,
                        "path" : "translation"
                    }
                },
                {
                    "sampler" : 10,
                    "target" : {
                        "node" : 1,
                        "path" : "rotation"
                    }
                },
                {
                    "sampler" : 11,
                    "target" : {
                        "node" : 1,
                        "path" : "scale"
                    }
                },
                {
                    "sampler" : 12,
                    "target" : {
                        "node" : 2,
                        "path" : "translation"
                    }
                },
                {
                    "sampler" : 13,
                    "target" : {
                        "node" : 2,
                        "path" : "rotation"
                    }
                },
                {
                    "sampler" : 14,
                    "target" : {
                        "node" : 2,
                        "path" : "scale"
                    }
                },
                {
                    "sampler" : 15,
                    "target" : {
                        "node" : 3,
                        "path" : "translation"
                    }
                },
                {
                    "sampler" : 16,
                    "target" : {
                        "node" : 3,
                        "path" : "rotation"
                    }
                },
                {
                    "sampler" : 17,
                    "target" : {
                        "node" : 3,
                        "path" : "scale"
                    }
                },
                {
                    "sampler" : 18,
                    "target" : {
                        "node" : 5,
                        "path" : "translation"
                    }
                },
                {
                    "sampler" : 19,
                    "target" : {
                        "node" : 5,
                        "path" : "rotation"
                    }
                },
                {
                    "sampler" : 20,
                    "target" : {
                        "node" : 5,
                        "path" : "scale"
                    }
                },
                {
                    "sampler" : 21,
                    "target" : {
                        "node" : 6,
                        "path" : "translation"
                    }
                },
                {
                    "sampler" : 22,
                    "target" : {
                        "node" : 6,
                        "path" : "rotation"
                    }
                },
                {
                    "sampler" : 23,
                    "target" : {
                        "node" : 6,
                        "path" : "scale"
                    }
                }
            ],
            "name" : "Fly",
            "samplers" : [
                {
                    "input" : 7,
                    "interpolation" : "LINEAR",
                    "output" : 8
                },
                {
                    "input" : 7,
                    "interpolation" : "LINEAR",
                    "output" : 9
                },
                {
                    "input" : 7,
                    "interpolation" : "LINEAR",
                    "output" : 10
                },
                {
                    "input" : 7,
                    "interpolation" : "LINEAR",
                    "output" : 11
                },
                {
                    "input" : 7,
                    "interpolation" : "LINEAR",
                    "output" : 12
                },
                {
                    "input" : 7,
                    "interpolation" : "LINEAR",
                    "output" : 13
                },
                {
                    "input" : 7,
                    "interpolation" : "LINEAR",
                    "output" : 14
                },
                {
                    "input" : 7,
                    "interpolation" : "LINEAR",
                    "output" : 15
                },
                {
                    "input" : 7,
                    "interpolation" : "LINEAR",
                    "output" : 16
                },
                {
                    "input" : 7,
                    "interpolation" : "LINEAR",
                    "output" : 17
                },
                {
                    "input" : 7,
                    "interpolation" : "LINEAR",
                    "output" : 18
                },
                {
                    "input" : 7,
                    "interpolation" : "LINEAR",
                    "output" : 19
                },
                {
                    "input" : 7,
                    "interpolation" : "LINEAR",
                    "output" : 20
                },
                {
                    "input" : 7,
                    "interpolation" : "LINEAR",
                    "output" : 21
                },
                {
                    "input" : 7,
                    "interpolation" : "LINEAR",
                    "output" : 22
                },
                {
                    "input" : 7,
                    "interpolation" : "LINEAR",
                    "output" : 23
                },
                {
                    "input" : 7,
                    "interpolation" : "LINEAR",
                    "output" : 24
                },
                {
                    "input" : 7,
                    "interpolation" : "LINEAR",
                    "output" : 25
                },
                {
                    "input" : 7,
                    "interpolation" : "LINEAR",
                    "output" : 26
                },
                {
                    "input" : 7,
                    "interpolation" : "LINEAR",
                    "output" : 27
                },
                {
                    "input" : 7,
                    "interpolation" : "LINEAR",
                    "output" : 28
                },
                {
                    "input" : 7,
                    "interpolation" : "LINEAR",
                    "output" : 29
                },
                {
                    "input" : 7,
                    "interpolation" : "LINEAR",
                    "output" : 30
                },
                {
                    "input" : 7,
                    "interpolation" : "LINEAR",
                    "output" : 31
                }
            ]
        }
    ],
    "materials" : [
        {
            "doubleSided" : true,
            "emissiveFactor" : [
                0,
                0,
                0
            ],
            "name" : "Mat_SnowOwl",
            "pbrMetallicRoughness" : {
                "baseColorTexture" : {
                    "index" : 0,
                    "texCoord" : 0
                },
                "metallicFactor" : 0,
                "roughnessFactor" : 0.5
            }
        }
    ],
    "meshes" : [
        {
            "name" : "SnowOwl_LOD1",
            "primitives" : [
                {
                    "attributes" : {
                        "POSITION" : 0,
                        "NORMAL" : 1,
                        "TEXCOORD_0" : 2,
                        "JOINTS_0" : 3,
                        "WEIGHTS_0" : 4
                    },
                    "indices" : 5,
                    "material" : 0
                }
            ]
        }
    ],
    "textures" : [
        {
            "source" : 0
        }
    ],
    "images" : [
        {
            "bufferView" : 6,
            "mimeType" : "image/png",
            "name" : "Tex_SnowOwl"
        }
    ],
    "skins" : [
        {
            "inverseBindMatrices" : 6,
            "joints" : [
                7,
                4,
                0,
                1,
                2,
                3,
                5,
                6
            ],
            "name" : "Rig"
        }
    ],
    "accessors" : [
        {
            "bufferView" : 0,
            "componentType" : 5126,
            "count" : 1107,
            "max" : [
                0.8254618644714355,
                1.9267219305038452,
                0.6399554014205933
            ],
            "min" : [
                -0.8254618644714355,
                0,
                -0.7080679535865784
            ],
            "type" : "VEC3"
        },
        {
            "bufferView" : 1,
            "componentType" : 5126,
            "count" : 1107,
            "type" : "VEC3"
        },
        {
            "bufferView" : 2,
            "componentType" : 5126,
            "count" : 1107,
            "type" : "VEC2"
        },
        {
            "bufferView" : 3,
            "componentType" : 5123,
            "count" : 1107,
            "type" : "VEC4"
        },
        {
            "bufferView" : 4,
            "componentType" : 5126,
            "count" : 1107,
            "type" : "VEC4"
        },
        {
            "bufferView" : 5,
            "componentType" : 5123,
            "count" : 5994,
            "type" : "SCALAR"
        },
        {
            "bufferView" : 7,
            "componentType" : 5126,
            "count" : 8,
            "type" : "MAT4"
        },
        {
            "bufferView" : 8,
            "componentType" : 5126,
            "count" : 11,
            "max" : [
                0.4166666666666667
            ],
            "min" : [
                0
            ],
            "type" : "SCALAR"
        },
        {
            "bufferView" : 9,
            "componentType" : 5126,
            "count" : 11,
            "type" : "VEC3"
        },
        {
            "bufferView" : 10,
            "componentType" : 5126,
            "count" : 11,
            "type" : "VEC4"
        },
        {
            "bufferView" : 11,
            "componentType" : 5126,
            "count" : 11,
            "type" : "VEC3"
        },
        {
            "bufferView" : 12,
            "componentType" : 5126,
            "count" : 11,
            "type" : "VEC3"
        },
        {
            "bufferView" : 13,
            "componentType" : 5126,
            "count" : 11,
            "type" : "VEC4"
        },
        {
            "bufferView" : 14,
            "componentType" : 5126,
            "count" : 11,
            "type" : "VEC3"
        },
        {
            "bufferView" : 15,
            "componentType" : 5126,
            "count" : 11,
            "type" : "VEC3"
        },
        {
            "bufferView" : 16,
            "componentType" : 5126,
            "count" : 11,
            "type" : "VEC4"
        },
        {
            "bufferView" : 17,
            "componentType" : 5126,
            "count" : 11,
            "type" : "VEC3"
        },
        {
            "bufferView" : 18,
            "componentType" : 5126,
            "count" : 11,
            "type" : "VEC3"
        },
        {
            "bufferView" : 19,
            "componentType" : 5126,
            "count" : 11,
            "type" : "VEC4"
        },
        {
            "bufferView" : 20,
            "componentType" : 5126,
            "count" : 11,
            "type" : "VEC3"
        },
        {
            "bufferView" : 21,
            "componentType" : 5126,
            "count" : 11,
            "type" : "VEC3"
        },
        {
            "bufferView" : 22,
            "componentType" : 5126,
            "count" : 11,
            "type" : "VEC4"
        },
        {
            "bufferView" : 23,
            "componentType" : 5126,
            "count" : 11,
            "type" : "VEC3"
        },
        {
            "bufferView" : 24,
            "componentType" : 5126,
            "count" : 11,
            "type" : "VEC3"
        },
        {
            "bufferView" : 25,
            "componentType" : 5126,
            "count" : 11,
            "type" : "VEC4"
        },
        {
            "bufferView" : 26,
            "componentType" : 5126,
            "count" : 11,
            "type" : "VEC3"
        },
        {
            "bufferView" : 27,
            "componentType" : 5126,
            "count" : 11,
            "type" : "VEC3"
        },
        {
            "bufferView" : 28,
            "componentType" : 5126,
            "count" : 11,
            "type" : "VEC4"
        },
        {
            "bufferView" : 29,
            "componentType" : 5126,
            "count" : 11,
            "type" : "VEC3"
        },
        {
            "bufferView" : 30,
            "componentType" : 5126,
            "count" : 11,
            "type" : "VEC3"
        },
        {
            "bufferView" : 31,
            "componentType" : 5126,
            "count" : 11,
            "type" : "VEC4"
        },
        {
            "bufferView" : 32,
            "componentType" : 5126,
            "count" : 11,
            "type" : "VEC3"
        }
    ],
    "bufferViews" : [
        {
            "buffer" : 0,
            "byteLength" : 13284,
            "byteOffset" : 0
        },
        {
            "buffer" : 0,
            "byteLength" : 13284,
            "byteOffset" : 13284
        },
        {
            "buffer" : 0,
            "byteLength" : 8856,
            "byteOffset" : 26568
        },
        {
            "buffer" : 0,
            "byteLength" : 8856,
            "byteOffset" : 35424
        },
        {
            "buffer" : 0,
            "byteLength" : 17712,
            "byteOffset" : 44280
        },
        {
            "buffer" : 0,
            "byteLength" : 11988,
            "byteOffset" : 61992
        },
        {
            "buffer" : 0,
            "byteLength" : 14997,
            "byteOffset" : 73980
        },
        {
            "buffer" : 0,
            "byteLength" : 512,
            "byteOffset" : 88980
        },
        {
            "buffer" : 0,
            "byteLength" : 44,
            "byteOffset" : 89492
        },
        {
            "buffer" : 0,
            "byteLength" : 132,
            "byteOffset" : 89536
        },
        {
            "buffer" : 0,
            "byteLength" : 176,
            "byteOffset" : 89668
        },
        {
            "buffer" : 0,
            "byteLength" : 132,
            "byteOffset" : 89844
        },
        {
            "buffer" : 0,
            "byteLength" : 132,
            "byteOffset" : 89976
        },
        {
            "buffer" : 0,
            "byteLength" : 176,
            "byteOffset" : 90108
        },
        {
            "buffer" : 0,
            "byteLength" : 132,
            "byteOffset" : 90284
        },
        {
            "buffer" : 0,
            "byteLength" : 132,
            "byteOffset" : 90416
        },
        {
            "buffer" : 0,
            "byteLength" : 176,
            "byteOffset" : 90548
        },
        {
            "buffer" : 0,
            "byteLength" : 132,
            "byteOffset" : 90724
        },
        {
            "buffer" : 0,
            "byteLength" : 132,
            "byteOffset" : 90856
        },
        {
            "buffer" : 0,
            "byteLength" : 176,
            "byteOffset" : 90988
        },
        {
            "buffer" : 0,
            "byteLength" : 132,
            "byteOffset" : 91164
        },
        {
            "buffer" : 0,
            "byteLength" : 132,
            "byteOffset" : 91296
        },
        {
            "buffer" : 0,
            "byteLength" : 176,
            "byteOffset" : 91428
        },
        {
            "buffer" : 0,
            "byteLength" : 132,
            "byteOffset" : 91604
        },
        {
            "buffer" : 0,
            "byteLength" : 132,
            "byteOffset" : 91736
        },
        {
            "buffer" : 0,
            "byteLength" : 176,
            "byteOffset" : 91868
        },
        {
            "buffer" : 0,
            "byteLength" : 132,
            "byteOffset" : 92044
        },
        {
            "buffer" : 0,
            "byteLength" : 132,
            "byteOffset" : 92176
        },
        {
            "buffer" : 0,
            "byteLength" : 176,
            "byteOffset" : 92308
        },
        {
            "buffer" : 0,
            "byteLength" : 132,
            "byteOffset" : 92484
        },
        {
            "buffer" : 0,
            "byteLength" : 132,
            "byteOffset" : 92616
        },
        {
            "buffer" : 0,
            "byteLength" : 176,
            "byteOffset" : 92748
        },
        {
            "buffer" : 0,
            "byteLength" : 132,
            "byteOffset" : 92924
        }
    ],
    "buffers" : [
        {
            "byteLength" : 93056,
            "uri" : "data:application/octet-stream;base64,"
        }
    ]
}
