{
    "asset" : {
        "copyright" : "Copyright 2020 Omabuarts Studio. For more info, visit https://omabuarts.com/license",
        "generator" : "Khronos glTF Blender I/O v1.1.46",
        "version" : "2.0"
    },
    "scene" : 0,
    "scenes" : [
        {
            "name" : "Scene",
            "nodes" : [
                11
            ]
        }
    ],
    "nodes" : [
        {
            "name" : "tail.01",
            "rotation" : [
                -0.781642735004425,
                -8.35302600421528e-08,
                1.1255126608489263e-08,
                0.6237264275550842
            ],
            "scale" : [
                1,
                0.9999999403953552,
                0.9999999403953552
            ],
            "translation" : [
                2.0964036195891822e-07,
                0.1546628773212433,
                -0.48646414279937744
            ]
        },
        {
            "name" : "tail.02",
            "rotation" : [
                -0.8861520886421204,
                -6.434272847855027e-08,
                -8.497698900100659e-08,
                0.4633944034576416
            ],
            "scale" : [
                1,
                0.9999998211860657,
                0.9999999403953552
            ],
            "translation" : [
                2.2610355188135145e-07,
                0.05082271248102188,
                -0.516616940498352
            ]
        },
        {
            "name" : "hair.01",
            "rotation" : [
                -0.10809038579463959,
                -0.04990032687783241,
                -0.06988945603370667,
                0.9904251098632812
            ],
            "scale" : [
                1,
                0.9999998807907104,
                0.9999998211860657
            ],
            "translation" : [
                2.559279721481289e-08,
                0.8503459095954895,
                0.28548726439476013
            ]
        },
        {
            "name" : "hair.02",
            "rotation" : [
                -0.2970483899116516,
                -0.0650150254368782,
                -0.05171055719256401,
                0.9512420892715454
            ],
            "scale" : [
                1,
                1,
                0.9999999403953552
            ],
            "translation" : [
                3.841640250357159e-08,
                0.8465480208396912,
                0.23170116543769836
            ]
        },
        {
            "name" : "wing.L",
            "rotation" : [
                -0.0068968115374445915,
                0.7360344529151917,
                -0.676876962184906,
                -0.006580103654414415
            ],
            "scale" : [
                1,
                0.9999998807907104,
                1
            ],
            "translation" : [
                0.5170627236366272,
                0.0513157844543457,
                0.18751218914985657
            ]
        },
        {
            "name" : "wing.R",
            "rotation" : [
                0.006897075567394495,
                0.7360344529151917,
                -0.676876962184906,
                0.006580276880413294
            ],
            "translation" : [
                -0.5170628428459167,
                0.0513157844543457,
                0.18751195073127747
            ]
        },
        {
            "children" : [
                0,
                1,
                2,
                3,
                4,
                5
            ],
            "name" : "body",
            "rotation" : [
                0.7071068286895752,
                8.429370268459024e-08,
                8.429370268459024e-08,
                0.7071068286895752
            ],
            "translation" : [
                0,
                0.04545918107032776,
                0.638204038143158
            ]
        },
        {
            "name" : "feet.L",
            "rotation" : [
                -5.338508657359853e-08,
                -0.7071068286895752,
                0.7071068286895752,
                5.338508657359853e-08
            ],
            "translation" : [
                0.2029442936182022,
                0,
                0.31300148367881775
            ]
        },
        {
            "name" : "feet.R",
            "rotation" : [
                -5.338508657359853e-08,
                -0.7071068286895752,
                0.7071068286895752,
                5.338508657359853e-08
            ],
            "translation" : [
                -0.2029442936182022,
                0,
                0.31300148367881775
            ]
        },
        {
            "children" : [
                6,
                7,
                8
            ],
            "name" : "root",
            "rotation" : [
                -0.7071068286895752,
                0,
                0,
                0.7071068286895752
            ]
        },
        {
            "mesh" : 0,
            "name" : "Chick",
            "skin" : 0
        },
        {
            "children" : [
                10,
                9
            ],
            "name" : "Rig"
        }
    ],
    "materials" : [
        {
            "doubleSided" : true,
            "emissiveFactor" : [
                0,
                0,
                0
            ],
            "name" : "Mat_Chick",
            "pbrMetallicRoughness" : {
                "baseColorTexture" : {
                    "index" : 0,
                    "texCoord" : 0
                },
                "metallicFactor" : 0,
                "roughnessFactor" : 0.5
            }
        }
    ],
    "meshes" : [
        {
            "name" : "Chick.005",
            "primitives" : [
                {
                    "attributes" : {
                        "POSITION" : 0,
                        "NORMAL" : 1,
                        "TEXCOORD_0" : 2,
                        "JOINTS_0" : 3,
                        "WEIGHTS_0" : 4
                    },
                    "indices" : 5,
                    "material" : 0
                }
            ]
        }
    ],
    "textures" : [
        {
            "source" : 0
        }
    ],
    "images" : [
        {
            "bufferView" : 6,
            "mimeType" : "image/png",
            "name" : "Tex_Chick"
        }
    ],
    "skins" : [
        {
            "inverseBindMatrices" : 6,
            "joints" : [
                9,
                6,
                0,
                1,
                2,
                3,
                4,
                5,
                7,
                8
            ],
            "name" : "Rig"
        }
    ],
    "accessors" : [
        {
            "bufferView" : 0,
            "componentType" : 5126,
            "count" : 522,
            "max" : [
                0.6023540496826172,
                1.627819299697876,
                0.6720528602600098
            ],
            "min" : [
                -0.6023540496826172,
                0.00046883540926501155,
                -0.8246572017669678
            ],
            "type" : "VEC3"
        },
        {
            "bufferView" : 1,
            "componentType" : 5126,
            "count" : 522,
            "type" : "VEC3"
        },
        {
            "bufferView" : 2,
            "componentType" : 5126,
            "count" : 522,
            "type" : "VEC2"
        },
        {
            "bufferView" : 3,
            "componentType" : 5123,
            "count" : 522,
            "type" : "VEC4"
        },
        {
            "bufferView" : 4,
            "componentType" : 5126,
            "count" : 522,
            "type" : "VEC4"
        },
        {
            "bufferView" : 5,
            "componentType" : 5123,
            "count" : 2172,
            "type" : "SCALAR"
        },
        {
            "bufferView" : 7,
            "componentType" : 5126,
            "count" : 10,
            "type" : "MAT4"
        }
    ],
    "bufferViews" : [
        {
            "buffer" : 0,
            "byteLength" : 6264,
            "byteOffset" : 0
        },
        {
            "buffer" : 0,
            "byteLength" : 6264,
            "byteOffset" : 6264
        },
        {
            "buffer" : 0,
            "byteLength" : 4176,
            "byteOffset" : 12528
        },
        {
            "buffer" : 0,
            "byteLength" : 4176,
            "byteOffset" : 16704
        },
        {
            "buffer" : 0,
            "byteLength" : 8352,
            "byteOffset" : 20880
        },
        {
            "buffer" : 0,
            "byteLength" : 4344,
            "byteOffset" : 29232
        },
        {
            "buffer" : 0,
            "byteLength" : 131,
            "byteOffset" : 33576
        },
        {
            "buffer" : 0,
            "byteLength" : 640,
            "byteOffset" : 33708
        }
    ],
    "buffers" : [
        {
            "byteLength" : 34348,
            "uri" : "data:application/octet-stream;base64,"
        }
    ]
}
