{
    "asset" : {
        "copyright" : "Copyright 2020 Omabuarts Studio. For more info, visit https://omabuarts.com/license",
        "generator" : "Khronos glTF Blender I/O v1.1.46",
        "version" : "2.0"
    },
    "scene" : 0,
    "scenes" : [
        {
            "name" : "Scene",
            "nodes" : [
                9
            ]
        }
    ],
    "nodes" : [
        {
            "name" : "tail.01",
            "rotation" : [
                -3.133114887532429e-07,
                -0.06205354630947113,
                0.9980729222297668,
                1.9479619695061956e-08
            ],
            "scale" : [
                1.0000001192092896,
                0.9999996423721313,
                0.9999994039535522
            ],
            "translation" : [
                2.585053482037636e-13,
                0.2663128972053528,
                -0.8614041805267334
            ]
        },
        {
            "name" : "head",
            "translation" : [
                1.3964277812663001e-16,
                0.040857553482055664,
                1.0627368688583374
            ]
        },
        {
            "children" : [
                0,
                1
            ],
            "name" : "body",
            "rotation" : [
                0.7071068286895752,
                -7.850462820808426e-17,
                -7.850462820808426e-17,
                0.7071068286895752
            ],
            "translation" : [
                -8.272589631006487e-17,
                0.23097217082977295,
                0.2086666226387024
            ]
        },
        {
            "name" : "leg.F.L",
            "rotation" : [
                -2.2197249904820637e-07,
                -0.7071068286895752,
                0.7071068286895752,
                2.2197249904820637e-07
            ],
            "translation" : [
                0.3980148434638977,
                -0.35792672634124756,
                0.4601936638355255
            ]
        },
        {
            "name" : "leg.B.L",
            "rotation" : [
                -2.2197249904820637e-07,
                -0.7071068286895752,
                0.7071068286895752,
                2.2197249904820637e-07
            ],
            "translation" : [
                0.3980148434638977,
                0.7647069692611694,
                0.4601936638355255
            ]
        },
        {
            "name" : "leg.F.R",
            "rotation" : [
                2.2197249904820637e-07,
                -0.7071068286895752,
                0.7071068286895752,
                -2.2197249904820637e-07
            ],
            "translation" : [
                -0.3980148434638977,
                -0.35792669653892517,
                0.4601936638355255
            ]
        },
        {
            "name" : "leg.B.R",
            "rotation" : [
                2.2197249904820637e-07,
                -0.7071068286895752,
                0.7071068286895752,
                -2.2197249904820637e-07
            ],
            "translation" : [
                -0.3980148434638977,
                0.7647069692611694,
                0.4601936638355255
            ]
        },
        {
            "children" : [
                2,
                3,
                4,
                5,
                6
            ],
            "name" : "root",
            "rotation" : [
                -0.7071068286895752,
                7.850462820808426e-17,
                7.850462820808426e-17,
                0.7071068286895752
            ],
            "translation" : [
                0,
                0,
                0.20000000298023224
            ]
        },
        {
            "mesh" : 0,
            "name" : "Tortoise",
            "skin" : 0
        },
        {
            "children" : [
                8,
                7
            ],
            "name" : "Rig"
        }
    ],
    "animations" : [
        {
            "channels" : [
                {
                    "sampler" : 0,
                    "target" : {
                        "node" : 7,
                        "path" : "translation"
                    }
                },
                {
                    "sampler" : 1,
                    "target" : {
                        "node" : 7,
                        "path" : "rotation"
                    }
                },
                {
                    "sampler" : 2,
                    "target" : {
                        "node" : 7,
                        "path" : "scale"
                    }
                },
                {
                    "sampler" : 3,
                    "target" : {
                        "node" : 2,
                        "path" : "translation"
                    }
                },
                {
                    "sampler" : 4,
                    "target" : {
                        "node" : 2,
                        "path" : "rotation"
                    }
                },
                {
                    "sampler" : 5,
                    "target" : {
                        "node" : 2,
                        "path" : "scale"
                    }
                },
                {
                    "sampler" : 6,
                    "target" : {
                        "node" : 0,
                        "path" : "translation"
                    }
                },
                {
                    "sampler" : 7,
                    "target" : {
                        "node" : 0,
                        "path" : "rotation"
                    }
                },
                {
                    "sampler" : 8,
                    "target" : {
                        "node" : 0,
                        "path" : "scale"
                    }
                },
                {
                    "sampler" : 9,
                    "target" : {
                        "node" : 1,
                        "path" : "translation"
                    }
                },
                {
                    "sampler" : 10,
                    "target" : {
                        "node" : 1,
                        "path" : "rotation"
                    }
                },
                {
                    "sampler" : 11,
                    "target" : {
                        "node" : 1,
                        "path" : "scale"
                    }
                },
                {
                    "sampler" : 12,
                    "target" : {
                        "node" : 3,
                        "path" : "translation"
                    }
                },
                {
                    "sampler" : 13,
                    "target" : {
                        "node" : 3,
                        "path" : "rotation"
                    }
                },
                {
                    "sampler" : 14,
                    "target" : {
                        "node" : 3,
                        "path" : "scale"
                    }
                },
                {
                    "sampler" : 15,
                    "target" : {
                        "node" : 4,
                        "path" : "translation"
                    }
                },
                {
                    "sampler" : 16,
                    "target" : {
                        "node" : 4,
                        "path" : "rotation"
                    }
                },
                {
                    "sampler" : 17,
                    "target" : {
                        "node" : 4,
                        "path" : "scale"
                    }
                },
                {
                    "sampler" : 18,
                    "target" : {
                        "node" : 5,
                        "path" : "translation"
                    }
                },
                {
                    "sampler" : 19,
                    "target" : {
                        "node" : 5,
                        "path" : "rotation"
                    }
                },
                {
                    "sampler" : 20,
                    "target" : {
                        "node" : 5,
                        "path" : "scale"
                    }
                },
                {
                    "sampler" : 21,
                    "target" : {
                        "node" : 6,
                        "path" : "translation"
                    }
                },
                {
                    "sampler" : 22,
                    "target" : {
                        "node" : 6,
                        "path" : "rotation"
                    }
                },
                {
                    "sampler" : 23,
                    "target" : {
                        "node" : 6,
                        "path" : "scale"
                    }
                }
            ],
            "name" : "Clicked",
            "samplers" : [
                {
                    "input" : 7,
                    "interpolation" : "LINEAR",
                    "output" : 8
                },
                {
                    "input" : 7,
                    "interpolation" : "LINEAR",
                    "output" : 9
                },
                {
                    "input" : 7,
                    "interpolation" : "LINEAR",
                    "output" : 10
                },
                {
                    "input" : 7,
                    "interpolation" : "LINEAR",
                    "output" : 11
                },
                {
                    "input" : 7,
                    "interpolation" : "LINEAR",
                    "output" : 12
                },
                {
                    "input" : 7,
                    "interpolation" : "LINEAR",
                    "output" : 13
                },
                {
                    "input" : 7,
                    "interpolation" : "LINEAR",
                    "output" : 14
                },
                {
                    "input" : 7,
                    "interpolation" : "LINEAR",
                    "output" : 15
                },
                {
                    "input" : 7,
                    "interpolation" : "LINEAR",
                    "output" : 16
                },
                {
                    "input" : 7,
                    "interpolation" : "LINEAR",
                    "output" : 17
                },
                {
                    "input" : 7,
                    "interpolation" : "LINEAR",
                    "output" : 18
                },
                {
                    "input" : 7,
                    "interpolation" : "LINEAR",
                    "output" : 19
                },
                {
                    "input" : 7,
                    "interpolation" : "LINEAR",
                    "output" : 20
                },
                {
                    "input" : 7,
                    "interpolation" : "LINEAR",
                    "output" : 21
                },
                {
                    "input" : 7,
                    "interpolation" : "LINEAR",
                    "output" : 22
                },
                {
                    "input" : 7,
                    "interpolation" : "LINEAR",
                    "output" : 23
                },
                {
                    "input" : 7,
                    "interpolation" : "LINEAR",
                    "output" : 24
                },
                {
                    "input" : 7,
                    "interpolation" : "LINEAR",
                    "output" : 25
                },
                {
                    "input" : 7,
                    "interpolation" : "LINEAR",
                    "output" : 26
                },
                {
                    "input" : 7,
                    "interpolation" : "LINEAR",
                    "output" : 27
                },
                {
                    "input" : 7,
                    "interpolation" : "LINEAR",
                    "output" : 28
                },
                {
                    "input" : 7,
                    "interpolation" : "LINEAR",
                    "output" : 29
                },
                {
                    "input" : 7,
                    "interpolation" : "LINEAR",
                    "output" : 30
                },
                {
                    "input" : 7,
                    "interpolation" : "LINEAR",
                    "output" : 31
                }
            ]
        }
    ],
    "materials" : [
        {
            "doubleSided" : true,
            "emissiveFactor" : [
                0,
                0,
                0
            ],
            "name" : "Mat_Tortoise",
            "pbrMetallicRoughness" : {
                "baseColorTexture" : {
                    "index" : 0,
                    "texCoord" : 0
                },
                "metallicFactor" : 0,
                "roughnessFactor" : 0.5
            }
        }
    ],
    "meshes" : [
        {
            "name" : "Cube.003",
            "primitives" : [
                {
                    "attributes" : {
                        "POSITION" : 0,
                        "NORMAL" : 1,
                        "TEXCOORD_0" : 2,
                        "JOINTS_0" : 3,
                        "WEIGHTS_0" : 4
                    },
                    "indices" : 5,
                    "material" : 0
                }
            ]
        }
    ],
    "textures" : [
        {
            "source" : 0
        }
    ],
    "images" : [
        {
            "bufferView" : 6,
            "mimeType" : "image/png",
            "name" : "Tex_Tortoise"
        }
    ],
    "skins" : [
        {
            "inverseBindMatrices" : 6,
            "joints" : [
                7,
                2,
                0,
                1,
                3,
                4,
                5,
                6
            ],
            "name" : "Rig"
        }
    ],
    "accessors" : [
        {
            "bufferView" : 0,
            "componentType" : 5126,
            "count" : 1442,
            "max" : [
                0.859029233455658,
                1.2595393657684326,
                1.3267340660095215
            ],
            "min" : [
                -0.8590291738510132,
                0.016414597630500793,
                -1.0217925310134888
            ],
            "type" : "VEC3"
        },
        {
            "bufferView" : 1,
            "componentType" : 5126,
            "count" : 1442,
            "type" : "VEC3"
        },
        {
            "bufferView" : 2,
            "componentType" : 5126,
            "count" : 1442,
            "type" : "VEC2"
        },
        {
            "bufferView" : 3,
            "componentType" : 5123,
            "count" : 1442,
            "type" : "VEC4"
        },
        {
            "bufferView" : 4,
            "componentType" : 5126,
            "count" : 1442,
            "type" : "VEC4"
        },
        {
            "bufferView" : 5,
            "componentType" : 5123,
            "count" : 3828,
            "type" : "SCALAR"
        },
        {
            "bufferView" : 7,
            "componentType" : 5126,
            "count" : 8,
            "type" : "MAT4"
        },
        {
            "bufferView" : 8,
            "componentType" : 5126,
            "count" : 11,
            "max" : [
                0.4166666666666667
            ],
            "min" : [
                0
            ],
            "type" : "SCALAR"
        },
        {
            "bufferView" : 9,
            "componentType" : 5126,
            "count" : 11,
            "type" : "VEC3"
        },
        {
            "bufferView" : 10,
            "componentType" : 5126,
            "count" : 11,
            "type" : "VEC4"
        },
        {
            "bufferView" : 11,
            "componentType" : 5126,
            "count" : 11,
            "type" : "VEC3"
        },
        {
            "bufferView" : 12,
            "componentType" : 5126,
            "count" : 11,
            "type" : "VEC3"
        },
        {
            "bufferView" : 13,
            "componentType" : 5126,
            "count" : 11,
            "type" : "VEC4"
        },
        {
            "bufferView" : 14,
            "componentType" : 5126,
            "count" : 11,
            "type" : "VEC3"
        },
        {
            "bufferView" : 15,
            "componentType" : 5126,
            "count" : 11,
            "type" : "VEC3"
        },
        {
            "bufferView" : 16,
            "componentType" : 5126,
            "count" : 11,
            "type" : "VEC4"
        },
        {
            "bufferView" : 17,
            "componentType" : 5126,
            "count" : 11,
            "type" : "VEC3"
        },
        {
            "bufferView" : 18,
            "componentType" : 5126,
            "count" : 11,
            "type" : "VEC3"
        },
        {
            "bufferView" : 19,
            "componentType" : 5126,
            "count" : 11,
            "type" : "VEC4"
        },
        {
            "bufferView" : 20,
            "componentType" : 5126,
            "count" : 11,
            "type" : "VEC3"
        },
        {
            "bufferView" : 21,
            "componentType" : 5126,
            "count" : 11,
            "type" : "VEC3"
        },
        {
            "bufferView" : 22,
            "componentType" : 5126,
            "count" : 11,
            "type" : "VEC4"
        },
        {
            "bufferView" : 23,
            "componentType" : 5126,
            "count" : 11,
            "type" : "VEC3"
        },
        {
            "bufferView" : 24,
            "componentType" : 5126,
            "count" : 11,
            "type" : "VEC3"
        },
        {
            "bufferView" : 25,
            "componentType" : 5126,
            "count" : 11,
            "type" : "VEC4"
        },
        {
            "bufferView" : 26,
            "componentType" : 5126,
            "count" : 11,
            "type" : "VEC3"
        },
        {
            "bufferView" : 27,
            "componentType" : 5126,
            "count" : 11,
            "type" : "VEC3"
        },
        {
            "bufferView" : 28,
            "componentType" : 5126,
            "count" : 11,
            "type" : "VEC4"
        },
        {
            "bufferView" : 29,
            "componentType" : 5126,
            "count" : 11,
            "type" : "VEC3"
        },
        {
            "bufferView" : 30,
            "componentType" : 5126,
            "count" : 11,
            "type" : "VEC3"
        },
        {
            "bufferView" : 31,
            "componentType" : 5126,
            "count" : 11,
            "type" : "VEC4"
        },
        {
            "bufferView" : 32,
            "componentType" : 5126,
            "count" : 11,
            "type" : "VEC3"
        }
    ],
    "bufferViews" : [
        {
            "buffer" : 0,
            "byteLength" : 17304,
            "byteOffset" : 0
        },
        {
            "buffer" : 0,
            "byteLength" : 17304,
            "byteOffset" : 17304
        },
        {
            "buffer" : 0,
            "byteLength" : 11536,
            "byteOffset" : 34608
        },
        {
            "buffer" : 0,
            "byteLength" : 11536,
            "byteOffset" : 46144
        },
        {
            "buffer" : 0,
            "byteLength" : 23072,
            "byteOffset" : 57680
        },
        {
            "buffer" : 0,
            "byteLength" : 7656,
            "byteOffset" : 80752
        },
        {
            "buffer" : 0,
            "byteLength" : 133,
            "byteOffset" : 88408
        },
        {
            "buffer" : 0,
            "byteLength" : 512,
            "byteOffset" : 88544
        },
        {
            "buffer" : 0,
            "byteLength" : 44,
            "byteOffset" : 89056
        },
        {
            "buffer" : 0,
            "byteLength" : 132,
            "byteOffset" : 89100
        },
        {
            "buffer" : 0,
            "byteLength" : 176,
            "byteOffset" : 89232
        },
        {
            "buffer" : 0,
            "byteLength" : 132,
            "byteOffset" : 89408
        },
        {
            "buffer" : 0,
            "byteLength" : 132,
            "byteOffset" : 89540
        },
        {
            "buffer" : 0,
            "byteLength" : 176,
            "byteOffset" : 89672
        },
        {
            "buffer" : 0,
            "byteLength" : 132,
            "byteOffset" : 89848
        },
        {
            "buffer" : 0,
            "byteLength" : 132,
            "byteOffset" : 89980
        },
        {
            "buffer" : 0,
            "byteLength" : 176,
            "byteOffset" : 90112
        },
        {
            "buffer" : 0,
            "byteLength" : 132,
            "byteOffset" : 90288
        },
        {
            "buffer" : 0,
            "byteLength" : 132,
            "byteOffset" : 90420
        },
        {
            "buffer" : 0,
            "byteLength" : 176,
            "byteOffset" : 90552
        },
        {
            "buffer" : 0,
            "byteLength" : 132,
            "byteOffset" : 90728
        },
        {
            "buffer" : 0,
            "byteLength" : 132,
            "byteOffset" : 90860
        },
        {
            "buffer" : 0,
            "byteLength" : 176,
            "byteOffset" : 90992
        },
        {
            "buffer" : 0,
            "byteLength" : 132,
            "byteOffset" : 91168
        },
        {
            "buffer" : 0,
            "byteLength" : 132,
            "byteOffset" : 91300
        },
        {
            "buffer" : 0,
            "byteLength" : 176,
            "byteOffset" : 91432
        },
        {
            "buffer" : 0,
            "byteLength" : 132,
            "byteOffset" : 91608
        },
        {
            "buffer" : 0,
            "byteLength" : 132,
            "byteOffset" : 91740
        },
        {
            "buffer" : 0,
            "byteLength" : 176,
            "byteOffset" : 91872
        },
        {
            "buffer" : 0,
            "byteLength" : 132,
            "byteOffset" : 92048
        },
        {
            "buffer" : 0,
            "byteLength" : 132,
            "byteOffset" : 92180
        },
        {
            "buffer" : 0,
            "byteLength" : 176,
            "byteOffset" : 92312
        },
        {
            "buffer" : 0,
            "byteLength" : 132,
            "byteOffset" : 92488
        }
    ],
    "buffers" : [
        {
            "byteLength" : 92620,
            "uri" : "data:application/octet-stream;base64,"
        }
    ]
}
