{
    "asset" : {
        "copyright" : "Copyright 2020 Omabuarts Studio. For more info, visit https://omabuarts.com/license",
        "generator" : "Khronos glTF Blender I/O v1.1.46",
        "version" : "2.0"
    },
    "scene" : 0,
    "scenes" : [
        {
            "name" : "Scene",
            "nodes" : [
                7
            ]
        }
    ],
    "nodes" : [
        {
            "name" : "body",
            "rotation" : [
                -7.549789415861596e-08,
                6.71794140316706e-08,
                1,
                1.2288358434379022e-14
            ],
            "scale" : [
                1,
                1.0000001192092896,
                1.0000001192092896
            ],
            "translation" : [
                1.7061384482985886e-07,
                0.47224190831184387,
                -1.1299244165420532
            ]
        },
        {
            "name" : "leg.F.L",
            "rotation" : [
                -0.16491848230361938,
                0.8209953308105469,
                0.348323792219162,
                0.42123517394065857
            ],
            "scale" : [
                1.0000001192092896,
                1,
                1
            ],
            "translation" : [
                -0.3357546329498291,
                -0.1906464695930481,
                -0.646546483039856
            ]
        },
        {
            "name" : "leg.F.R",
            "rotation" : [
                -0.1649184674024582,
                -0.8209954500198364,
                -0.34832388162612915,
                0.42123499512672424
            ],
            "scale" : [
                1.000000238418579,
                1.000000238418579,
                1.0000001192092896
            ],
            "translation" : [
                0.3357548415660858,
                -0.1906464397907257,
                -0.6465463042259216
            ]
        },
        {
            "name" : "leg.B.L",
            "rotation" : [
                -0.4485301971435547,
                0.21806079149246216,
                0.11382812261581421,
                0.8592516183853149
            ],
            "scale" : [
                1,
                1,
                1.0000001192092896
            ],
            "translation" : [
                -0.49818897247314453,
                0.0874556377530098,
                -1.6575158834457397
            ]
        },
        {
            "name" : "leg.B.R",
            "rotation" : [
                -0.44853001832962036,
                -0.21806088089942932,
                -0.11382818967103958,
                0.8592516779899597
            ],
            "translation" : [
                0.4981895089149475,
                0.08745565265417099,
                -1.6575156450271606
            ]
        },
        {
            "children" : [
                0,
                1,
                2,
                3,
                4
            ],
            "name" : "root",
            "rotation" : [
                -5.338508657359853e-08,
                -0.7071068286895752,
                0.7071068286895752,
                5.338508657359853e-08
            ],
            "translation" : [
                0,
                -1.395307975826654e-07,
                0.8564340472221375
            ]
        },
        {
            "mesh" : 0,
            "name" : "Walrus",
            "skin" : 0
        },
        {
            "children" : [
                6,
                5
            ],
            "name" : "Rig",
            "translation" : [
                0,
                0,
                -0.7780289053916931
            ]
        }
    ],
    "animations" : [
        {
            "channels" : [
                {
                    "sampler" : 0,
                    "target" : {
                        "node" : 5,
                        "path" : "translation"
                    }
                },
                {
                    "sampler" : 1,
                    "target" : {
                        "node" : 5,
                        "path" : "rotation"
                    }
                },
                {
                    "sampler" : 2,
                    "target" : {
                        "node" : 5,
                        "path" : "scale"
                    }
                },
                {
                    "sampler" : 3,
                    "target" : {
                        "node" : 0,
                        "path" : "translation"
                    }
                },
                {
                    "sampler" : 4,
                    "target" : {
                        "node" : 0,
                        "path" : "rotation"
                    }
                },
                {
                    "sampler" : 5,
                    "target" : {
                        "node" : 0,
                        "path" : "scale"
                    }
                },
                {
                    "sampler" : 6,
                    "target" : {
                        "node" : 1,
                        "path" : "translation"
                    }
                },
                {
                    "sampler" : 7,
                    "target" : {
                        "node" : 1,
                        "path" : "rotation"
                    }
                },
                {
                    "sampler" : 8,
                    "target" : {
                        "node" : 1,
                        "path" : "scale"
                    }
                },
                {
                    "sampler" : 9,
                    "target" : {
                        "node" : 2,
                        "path" : "translation"
                    }
                },
                {
                    "sampler" : 10,
                    "target" : {
                        "node" : 2,
                        "path" : "rotation"
                    }
                },
                {
                    "sampler" : 11,
                    "target" : {
                        "node" : 2,
                        "path" : "scale"
                    }
                },
                {
                    "sampler" : 12,
                    "target" : {
                        "node" : 3,
                        "path" : "translation"
                    }
                },
                {
                    "sampler" : 13,
                    "target" : {
                        "node" : 3,
                        "path" : "rotation"
                    }
                },
                {
                    "sampler" : 14,
                    "target" : {
                        "node" : 3,
                        "path" : "scale"
                    }
                },
                {
                    "sampler" : 15,
                    "target" : {
                        "node" : 4,
                        "path" : "translation"
                    }
                },
                {
                    "sampler" : 16,
                    "target" : {
                        "node" : 4,
                        "path" : "rotation"
                    }
                },
                {
                    "sampler" : 17,
                    "target" : {
                        "node" : 4,
                        "path" : "scale"
                    }
                }
            ],
            "name" : "Roll",
            "samplers" : [
                {
                    "input" : 7,
                    "interpolation" : "LINEAR",
                    "output" : 8
                },
                {
                    "input" : 7,
                    "interpolation" : "LINEAR",
                    "output" : 9
                },
                {
                    "input" : 7,
                    "interpolation" : "LINEAR",
                    "output" : 10
                },
                {
                    "input" : 7,
                    "interpolation" : "LINEAR",
                    "output" : 11
                },
                {
                    "input" : 7,
                    "interpolation" : "LINEAR",
                    "output" : 12
                },
                {
                    "input" : 7,
                    "interpolation" : "LINEAR",
                    "output" : 13
                },
                {
                    "input" : 7,
                    "interpolation" : "LINEAR",
                    "output" : 14
                },
                {
                    "input" : 7,
                    "interpolation" : "LINEAR",
                    "output" : 15
                },
                {
                    "input" : 7,
                    "interpolation" : "LINEAR",
                    "output" : 16
                },
                {
                    "input" : 7,
                    "interpolation" : "LINEAR",
                    "output" : 17
                },
                {
                    "input" : 7,
                    "interpolation" : "LINEAR",
                    "output" : 18
                },
                {
                    "input" : 7,
                    "interpolation" : "LINEAR",
                    "output" : 19
                },
                {
                    "input" : 7,
                    "interpolation" : "LINEAR",
                    "output" : 20
                },
                {
                    "input" : 7,
                    "interpolation" : "LINEAR",
                    "output" : 21
                },
                {
                    "input" : 7,
                    "interpolation" : "LINEAR",
                    "output" : 22
                },
                {
                    "input" : 7,
                    "interpolation" : "LINEAR",
                    "output" : 23
                },
                {
                    "input" : 7,
                    "interpolation" : "LINEAR",
                    "output" : 24
                },
                {
                    "input" : 7,
                    "interpolation" : "LINEAR",
                    "output" : 25
                }
            ]
        }
    ],
    "materials" : [
        {
            "doubleSided" : true,
            "emissiveFactor" : [
                0,
                0,
                0
            ],
            "name" : "Mat_Walrus",
            "pbrMetallicRoughness" : {
                "baseColorTexture" : {
                    "index" : 0,
                    "texCoord" : 0
                },
                "metallicFactor" : 0,
                "roughnessFactor" : 0.5
            }
        }
    ],
    "meshes" : [
        {
            "name" : "Walrus.004",
            "primitives" : [
                {
                    "attributes" : {
                        "POSITION" : 0,
                        "NORMAL" : 1,
                        "TEXCOORD_0" : 2,
                        "JOINTS_0" : 3,
                        "WEIGHTS_0" : 4
                    },
                    "indices" : 5,
                    "material" : 0
                }
            ]
        }
    ],
    "textures" : [
        {
            "source" : 0
        }
    ],
    "images" : [
        {
            "bufferView" : 6,
            "mimeType" : "image/png",
            "name" : "Tex_Walrus"
        }
    ],
    "skins" : [
        {
            "inverseBindMatrices" : 6,
            "joints" : [
                5,
                0,
                1,
                2,
                3,
                4
            ],
            "name" : "Rig"
        }
    ],
    "accessors" : [
        {
            "bufferView" : 0,
            "componentType" : 5126,
            "count" : 1352,
            "max" : [
                1.353058099746704,
                2.0173821449279785,
                1.2346208095550537
            ],
            "min" : [
                -1.353058099746704,
                0.0043487255461514,
                -1.1436231136322021
            ],
            "type" : "VEC3"
        },
        {
            "bufferView" : 1,
            "componentType" : 5126,
            "count" : 1352,
            "type" : "VEC3"
        },
        {
            "bufferView" : 2,
            "componentType" : 5126,
            "count" : 1352,
            "type" : "VEC2"
        },
        {
            "bufferView" : 3,
            "componentType" : 5123,
            "count" : 1352,
            "type" : "VEC4"
        },
        {
            "bufferView" : 4,
            "componentType" : 5126,
            "count" : 1352,
            "type" : "VEC4"
        },
        {
            "bufferView" : 5,
            "componentType" : 5123,
            "count" : 6798,
            "type" : "SCALAR"
        },
        {
            "bufferView" : 7,
            "componentType" : 5126,
            "count" : 6,
            "type" : "MAT4"
        },
        {
            "bufferView" : 8,
            "componentType" : 5126,
            "count" : 11,
            "max" : [
                0.4166666666666667
            ],
            "min" : [
                0
            ],
            "type" : "SCALAR"
        },
        {
            "bufferView" : 9,
            "componentType" : 5126,
            "count" : 11,
            "type" : "VEC3"
        },
        {
            "bufferView" : 10,
            "componentType" : 5126,
            "count" : 11,
            "type" : "VEC4"
        },
        {
            "bufferView" : 11,
            "componentType" : 5126,
            "count" : 11,
            "type" : "VEC3"
        },
        {
            "bufferView" : 12,
            "componentType" : 5126,
            "count" : 11,
            "type" : "VEC3"
        },
        {
            "bufferView" : 13,
            "componentType" : 5126,
            "count" : 11,
            "type" : "VEC4"
        },
        {
            "bufferView" : 14,
            "componentType" : 5126,
            "count" : 11,
            "type" : "VEC3"
        },
        {
            "bufferView" : 15,
            "componentType" : 5126,
            "count" : 11,
            "type" : "VEC3"
        },
        {
            "bufferView" : 16,
            "componentType" : 5126,
            "count" : 11,
            "type" : "VEC4"
        },
        {
            "bufferView" : 17,
            "componentType" : 5126,
            "count" : 11,
            "type" : "VEC3"
        },
        {
            "bufferView" : 18,
            "componentType" : 5126,
            "count" : 11,
            "type" : "VEC3"
        },
        {
            "bufferView" : 19,
            "componentType" : 5126,
            "count" : 11,
            "type" : "VEC4"
        },
        {
            "bufferView" : 20,
            "componentType" : 5126,
            "count" : 11,
            "type" : "VEC3"
        },
        {
            "bufferView" : 21,
            "componentType" : 5126,
            "count" : 11,
            "type" : "VEC3"
        },
        {
            "bufferView" : 22,
            "componentType" : 5126,
            "count" : 11,
            "type" : "VEC4"
        },
        {
            "bufferView" : 23,
            "componentType" : 5126,
            "count" : 11,
            "type" : "VEC3"
        },
        {
            "bufferView" : 24,
            "componentType" : 5126,
            "count" : 11,
            "type" : "VEC3"
        },
        {
            "bufferView" : 25,
            "componentType" : 5126,
            "count" : 11,
            "type" : "VEC4"
        },
        {
            "bufferView" : 26,
            "componentType" : 5126,
            "count" : 11,
            "type" : "VEC3"
        }
    ],
    "bufferViews" : [
        {
            "buffer" : 0,
            "byteLength" : 16224,
            "byteOffset" : 0
        },
        {
            "buffer" : 0,
            "byteLength" : 16224,
            "byteOffset" : 16224
        },
        {
            "buffer" : 0,
            "byteLength" : 10816,
            "byteOffset" : 32448
        },
        {
            "buffer" : 0,
            "byteLength" : 10816,
            "byteOffset" : 43264
        },
        {
            "buffer" : 0,
            "byteLength" : 21632,
            "byteOffset" : 54080
        },
        {
            "buffer" : 0,
            "byteLength" : 13596,
            "byteOffset" : 75712
        },
        {
            "buffer" : 0,
            "byteLength" : 2813,
            "byteOffset" : 89308
        },
        {
            "buffer" : 0,
            "byteLength" : 384,
            "byteOffset" : 92124
        },
        {
            "buffer" : 0,
            "byteLength" : 44,
            "byteOffset" : 92508
        },
        {
            "buffer" : 0,
            "byteLength" : 132,
            "byteOffset" : 92552
        },
        {
            "buffer" : 0,
            "byteLength" : 176,
            "byteOffset" : 92684
        },
        {
            "buffer" : 0,
            "byteLength" : 132,
            "byteOffset" : 92860
        },
        {
            "buffer" : 0,
            "byteLength" : 132,
            "byteOffset" : 92992
        },
        {
            "buffer" : 0,
            "byteLength" : 176,
            "byteOffset" : 93124
        },
        {
            "buffer" : 0,
            "byteLength" : 132,
            "byteOffset" : 93300
        },
        {
            "buffer" : 0,
            "byteLength" : 132,
            "byteOffset" : 93432
        },
        {
            "buffer" : 0,
            "byteLength" : 176,
            "byteOffset" : 93564
        },
        {
            "buffer" : 0,
            "byteLength" : 132,
            "byteOffset" : 93740
        },
        {
            "buffer" : 0,
            "byteLength" : 132,
            "byteOffset" : 93872
        },
        {
            "buffer" : 0,
            "byteLength" : 176,
            "byteOffset" : 94004
        },
        {
            "buffer" : 0,
            "byteLength" : 132,
            "byteOffset" : 94180
        },
        {
            "buffer" : 0,
            "byteLength" : 132,
            "byteOffset" : 94312
        },
        {
            "buffer" : 0,
            "byteLength" : 176,
            "byteOffset" : 94444
        },
        {
            "buffer" : 0,
            "byteLength" : 132,
            "byteOffset" : 94620
        },
        {
            "buffer" : 0,
            "byteLength" : 132,
            "byteOffset" : 94752
        },
        {
            "buffer" : 0,
            "byteLength" : 176,
            "byteOffset" : 94884
        },
        {
            "buffer" : 0,
            "byteLength" : 132,
            "byteOffset" : 95060
        }
    ],
    "buffers" : [
        {
            "byteLength" : 95192,
            "uri" : "data:application/octet-stream;base64,"
        }
    ]
}
