{
    "asset" : {
        "copyright" : "Copyright 2020 Omabuarts Studio. For more info, visit https://omabuarts.com/license",
        "generator" : "Khronos glTF Blender I/O v1.1.46",
        "version" : "2.0"
    },
    "scene" : 0,
    "scenes" : [
        {
            "name" : "Scene",
            "nodes" : [
                9
            ]
        }
    ],
    "nodes" : [
        {
            "name" : "feet.L",
            "rotation" : [
                -4.95742469297511e-08,
                0.7071068286895752,
                0.7071068286895752,
                5.338508657359853e-08
            ],
            "translation" : [
                -0.25554537773132324,
                0.0943792536854744,
                -0.616402804851532
            ]
        },
        {
            "name" : "tail.01",
            "rotation" : [
                0.8286343812942505,
                3.068899331992725e-06,
                -5.6563649195595644e-06,
                0.5597902536392212
            ],
            "scale" : [
                1,
                1,
                1.0000001192092896
            ],
            "translation" : [
                6.847431905043777e-06,
                0.6185004711151123,
                0.5562061667442322
            ]
        },
        {
            "name" : "tail.02",
            "rotation" : [
                0.8424628973007202,
                2.9529480798373697e-06,
                -5.750175660068635e-06,
                0.5387543439865112
            ],
            "scale" : [
                1,
                1,
                0.9999999403953552
            ],
            "translation" : [
                8.359219464182388e-06,
                0.47426313161849976,
                0.6787513494491577
            ]
        },
        {
            "name" : "wing.L",
            "rotation" : [
                0.7070862650871277,
                -0.005789962597191334,
                0.005394022911787033,
                0.7070831060409546
            ],
            "scale" : [
                1,
                1,
                0.9999999403953552
            ],
            "translation" : [
                -0.4863717257976532,
                0.30655571818351746,
                -0.2713373005390167
            ]
        },
        {
            "name" : "wing.R",
            "rotation" : [
                0.7070860862731934,
                0.005798680242151022,
                -0.005402741022408009,
                0.7070830464363098
            ],
            "scale" : [
                0.9999999403953552,
                1,
                0.9999998807907104
            ],
            "translation" : [
                0.48636505007743835,
                0.30655571818351746,
                -0.2713492810726166
            ]
        },
        {
            "children" : [
                1,
                2,
                3,
                4
            ],
            "name" : "body",
            "rotation" : [
                -0.7071068286895752,
                -4.405748768476769e-06,
                4.299231477489229e-06,
                0.7071067094802856
            ],
            "translation" : [
                4.264027353428901e-08,
                -0.004670560359954834,
                -0.28239378333091736
            ]
        },
        {
            "name" : "feet.R",
            "rotation" : [
                -4.95742469297511e-08,
                0.7071068286895752,
                0.7071068286895752,
                5.338508657359853e-08
            ],
            "translation" : [
                0.25554555654525757,
                0.0943792536854744,
                -0.616402804851532
            ]
        },
        {
            "children" : [
                0,
                5,
                6
            ],
            "name" : "root",
            "rotation" : [
                5.338507946817117e-08,
                0.7071068286895752,
                -0.7071068286895752,
                -5.338507946817117e-08
            ],
            "scale" : [
                1,
                0.9999997019767761,
                1
            ],
            "translation" : [
                -2.1096328315768712e-17,
                0.00414653867483139,
                -0.0018448424525558949
            ]
        },
        {
            "mesh" : 0,
            "name" : "Hornbill",
            "skin" : 0
        },
        {
            "children" : [
                8,
                7
            ],
            "name" : "Rig",
            "translation" : [
                0,
                -0.0008636321872472763,
                -0.005441997200250626
            ]
        }
    ],
    "animations" : [
        {
            "channels" : [
                {
                    "sampler" : 0,
                    "target" : {
                        "node" : 7,
                        "path" : "translation"
                    }
                },
                {
                    "sampler" : 1,
                    "target" : {
                        "node" : 7,
                        "path" : "rotation"
                    }
                },
                {
                    "sampler" : 2,
                    "target" : {
                        "node" : 7,
                        "path" : "scale"
                    }
                },
                {
                    "sampler" : 3,
                    "target" : {
                        "node" : 0,
                        "path" : "translation"
                    }
                },
                {
                    "sampler" : 4,
                    "target" : {
                        "node" : 0,
                        "path" : "rotation"
                    }
                },
                {
                    "sampler" : 5,
                    "target" : {
                        "node" : 0,
                        "path" : "scale"
                    }
                },
                {
                    "sampler" : 6,
                    "target" : {
                        "node" : 5,
                        "path" : "translation"
                    }
                },
                {
                    "sampler" : 7,
                    "target" : {
                        "node" : 5,
                        "path" : "rotation"
                    }
                },
                {
                    "sampler" : 8,
                    "target" : {
                        "node" : 5,
                        "path" : "scale"
                    }
                },
                {
                    "sampler" : 9,
                    "target" : {
                        "node" : 1,
                        "path" : "translation"
                    }
                },
                {
                    "sampler" : 10,
                    "target" : {
                        "node" : 1,
                        "path" : "rotation"
                    }
                },
                {
                    "sampler" : 11,
                    "target" : {
                        "node" : 1,
                        "path" : "scale"
                    }
                },
                {
                    "sampler" : 12,
                    "target" : {
                        "node" : 2,
                        "path" : "translation"
                    }
                },
                {
                    "sampler" : 13,
                    "target" : {
                        "node" : 2,
                        "path" : "rotation"
                    }
                },
                {
                    "sampler" : 14,
                    "target" : {
                        "node" : 2,
                        "path" : "scale"
                    }
                },
                {
                    "sampler" : 15,
                    "target" : {
                        "node" : 3,
                        "path" : "translation"
                    }
                },
                {
                    "sampler" : 16,
                    "target" : {
                        "node" : 3,
                        "path" : "rotation"
                    }
                },
                {
                    "sampler" : 17,
                    "target" : {
                        "node" : 3,
                        "path" : "scale"
                    }
                },
                {
                    "sampler" : 18,
                    "target" : {
                        "node" : 4,
                        "path" : "translation"
                    }
                },
                {
                    "sampler" : 19,
                    "target" : {
                        "node" : 4,
                        "path" : "rotation"
                    }
                },
                {
                    "sampler" : 20,
                    "target" : {
                        "node" : 4,
                        "path" : "scale"
                    }
                },
                {
                    "sampler" : 21,
                    "target" : {
                        "node" : 6,
                        "path" : "translation"
                    }
                },
                {
                    "sampler" : 22,
                    "target" : {
                        "node" : 6,
                        "path" : "rotation"
                    }
                },
                {
                    "sampler" : 23,
                    "target" : {
                        "node" : 6,
                        "path" : "scale"
                    }
                }
            ],
            "name" : "Peck",
            "samplers" : [
                {
                    "input" : 7,
                    "interpolation" : "LINEAR",
                    "output" : 8
                },
                {
                    "input" : 7,
                    "interpolation" : "LINEAR",
                    "output" : 9
                },
                {
                    "input" : 7,
                    "interpolation" : "LINEAR",
                    "output" : 10
                },
                {
                    "input" : 7,
                    "interpolation" : "LINEAR",
                    "output" : 11
                },
                {
                    "input" : 7,
                    "interpolation" : "LINEAR",
                    "output" : 12
                },
                {
                    "input" : 7,
                    "interpolation" : "LINEAR",
                    "output" : 13
                },
                {
                    "input" : 7,
                    "interpolation" : "LINEAR",
                    "output" : 14
                },
                {
                    "input" : 7,
                    "interpolation" : "LINEAR",
                    "output" : 15
                },
                {
                    "input" : 7,
                    "interpolation" : "LINEAR",
                    "output" : 16
                },
                {
                    "input" : 7,
                    "interpolation" : "LINEAR",
                    "output" : 17
                },
                {
                    "input" : 7,
                    "interpolation" : "LINEAR",
                    "output" : 18
                },
                {
                    "input" : 7,
                    "interpolation" : "LINEAR",
                    "output" : 19
                },
                {
                    "input" : 7,
                    "interpolation" : "LINEAR",
                    "output" : 20
                },
                {
                    "input" : 7,
                    "interpolation" : "LINEAR",
                    "output" : 21
                },
                {
                    "input" : 7,
                    "interpolation" : "LINEAR",
                    "output" : 22
                },
                {
                    "input" : 7,
                    "interpolation" : "LINEAR",
                    "output" : 23
                },
                {
                    "input" : 7,
                    "interpolation" : "LINEAR",
                    "output" : 24
                },
                {
                    "input" : 7,
                    "interpolation" : "LINEAR",
                    "output" : 25
                },
                {
                    "input" : 7,
                    "interpolation" : "LINEAR",
                    "output" : 26
                },
                {
                    "input" : 7,
                    "interpolation" : "LINEAR",
                    "output" : 27
                },
                {
                    "input" : 7,
                    "interpolation" : "LINEAR",
                    "output" : 28
                },
                {
                    "input" : 7,
                    "interpolation" : "LINEAR",
                    "output" : 29
                },
                {
                    "input" : 7,
                    "interpolation" : "LINEAR",
                    "output" : 30
                },
                {
                    "input" : 7,
                    "interpolation" : "LINEAR",
                    "output" : 31
                }
            ]
        }
    ],
    "materials" : [
        {
            "doubleSided" : true,
            "emissiveFactor" : [
                0,
                0,
                0
            ],
            "name" : "Mat_Hornbill",
            "pbrMetallicRoughness" : {
                "baseColorTexture" : {
                    "index" : 0,
                    "texCoord" : 0
                },
                "metallicFactor" : 0,
                "roughnessFactor" : 0.5
            }
        }
    ],
    "meshes" : [
        {
            "name" : "Hornbill.004",
            "primitives" : [
                {
                    "attributes" : {
                        "POSITION" : 0,
                        "NORMAL" : 1,
                        "TEXCOORD_0" : 2,
                        "JOINTS_0" : 3,
                        "WEIGHTS_0" : 4
                    },
                    "indices" : 5,
                    "material" : 0
                }
            ]
        }
    ],
    "textures" : [
        {
            "source" : 0
        }
    ],
    "images" : [
        {
            "bufferView" : 6,
            "mimeType" : "image/png",
            "name" : "Tex_Hornbill"
        }
    ],
    "skins" : [
        {
            "inverseBindMatrices" : 6,
            "joints" : [
                7,
                0,
                5,
                1,
                2,
                3,
                4,
                6
            ],
            "name" : "Rig"
        }
    ],
    "accessors" : [
        {
            "bufferView" : 0,
            "componentType" : 5126,
            "count" : 1655,
            "max" : [
                0.6127341985702515,
                1.9621341228485107,
                1.1188000440597534
            ],
            "min" : [
                -0.6127341985702515,
                0.005574748385697603,
                -1.584969162940979
            ],
            "type" : "VEC3"
        },
        {
            "bufferView" : 1,
            "componentType" : 5126,
            "count" : 1655,
            "type" : "VEC3"
        },
        {
            "bufferView" : 2,
            "componentType" : 5126,
            "count" : 1655,
            "type" : "VEC2"
        },
        {
            "bufferView" : 3,
            "componentType" : 5123,
            "count" : 1655,
            "type" : "VEC4"
        },
        {
            "bufferView" : 4,
            "componentType" : 5126,
            "count" : 1655,
            "type" : "VEC4"
        },
        {
            "bufferView" : 5,
            "componentType" : 5123,
            "count" : 5382,
            "type" : "SCALAR"
        },
        {
            "bufferView" : 7,
            "componentType" : 5126,
            "count" : 8,
            "type" : "MAT4"
        },
        {
            "bufferView" : 8,
            "componentType" : 5126,
            "count" : 11,
            "max" : [
                0.4166666666666667
            ],
            "min" : [
                0
            ],
            "type" : "SCALAR"
        },
        {
            "bufferView" : 9,
            "componentType" : 5126,
            "count" : 11,
            "type" : "VEC3"
        },
        {
            "bufferView" : 10,
            "componentType" : 5126,
            "count" : 11,
            "type" : "VEC4"
        },
        {
            "bufferView" : 11,
            "componentType" : 5126,
            "count" : 11,
            "type" : "VEC3"
        },
        {
            "bufferView" : 12,
            "componentType" : 5126,
            "count" : 11,
            "type" : "VEC3"
        },
        {
            "bufferView" : 13,
            "componentType" : 5126,
            "count" : 11,
            "type" : "VEC4"
        },
        {
            "bufferView" : 14,
            "componentType" : 5126,
            "count" : 11,
            "type" : "VEC3"
        },
        {
            "bufferView" : 15,
            "componentType" : 5126,
            "count" : 11,
            "type" : "VEC3"
        },
        {
            "bufferView" : 16,
            "componentType" : 5126,
            "count" : 11,
            "type" : "VEC4"
        },
        {
            "bufferView" : 17,
            "componentType" : 5126,
            "count" : 11,
            "type" : "VEC3"
        },
        {
            "bufferView" : 18,
            "componentType" : 5126,
            "count" : 11,
            "type" : "VEC3"
        },
        {
            "bufferView" : 19,
            "componentType" : 5126,
            "count" : 11,
            "type" : "VEC4"
        },
        {
            "bufferView" : 20,
            "componentType" : 5126,
            "count" : 11,
            "type" : "VEC3"
        },
        {
            "bufferView" : 21,
            "componentType" : 5126,
            "count" : 11,
            "type" : "VEC3"
        },
        {
            "bufferView" : 22,
            "componentType" : 5126,
            "count" : 11,
            "type" : "VEC4"
        },
        {
            "bufferView" : 23,
            "componentType" : 5126,
            "count" : 11,
            "type" : "VEC3"
        },
        {
            "bufferView" : 24,
            "componentType" : 5126,
            "count" : 11,
            "type" : "VEC3"
        },
        {
            "bufferView" : 25,
            "componentType" : 5126,
            "count" : 11,
            "type" : "VEC4"
        },
        {
            "bufferView" : 26,
            "componentType" : 5126,
            "count" : 11,
            "type" : "VEC3"
        },
        {
            "bufferView" : 27,
            "componentType" : 5126,
            "count" : 11,
            "type" : "VEC3"
        },
        {
            "bufferView" : 28,
            "componentType" : 5126,
            "count" : 11,
            "type" : "VEC4"
        },
        {
            "bufferView" : 29,
            "componentType" : 5126,
            "count" : 11,
            "type" : "VEC3"
        },
        {
            "bufferView" : 30,
            "componentType" : 5126,
            "count" : 11,
            "type" : "VEC3"
        },
        {
            "bufferView" : 31,
            "componentType" : 5126,
            "count" : 11,
            "type" : "VEC4"
        },
        {
            "bufferView" : 32,
            "componentType" : 5126,
            "count" : 11,
            "type" : "VEC3"
        }
    ],
    "bufferViews" : [
        {
            "buffer" : 0,
            "byteLength" : 19860,
            "byteOffset" : 0
        },
        {
            "buffer" : 0,
            "byteLength" : 19860,
            "byteOffset" : 19860
        },
        {
            "buffer" : 0,
            "byteLength" : 13240,
            "byteOffset" : 39720
        },
        {
            "buffer" : 0,
            "byteLength" : 13240,
            "byteOffset" : 52960
        },
        {
            "buffer" : 0,
            "byteLength" : 26480,
            "byteOffset" : 66200
        },
        {
            "buffer" : 0,
            "byteLength" : 10764,
            "byteOffset" : 92680
        },
        {
            "buffer" : 0,
            "byteLength" : 168,
            "byteOffset" : 103444
        },
        {
            "buffer" : 0,
            "byteLength" : 512,
            "byteOffset" : 103612
        },
        {
            "buffer" : 0,
            "byteLength" : 44,
            "byteOffset" : 104124
        },
        {
            "buffer" : 0,
            "byteLength" : 132,
            "byteOffset" : 104168
        },
        {
            "buffer" : 0,
            "byteLength" : 176,
            "byteOffset" : 104300
        },
        {
            "buffer" : 0,
            "byteLength" : 132,
            "byteOffset" : 104476
        },
        {
            "buffer" : 0,
            "byteLength" : 132,
            "byteOffset" : 104608
        },
        {
            "buffer" : 0,
            "byteLength" : 176,
            "byteOffset" : 104740
        },
        {
            "buffer" : 0,
            "byteLength" : 132,
            "byteOffset" : 104916
        },
        {
            "buffer" : 0,
            "byteLength" : 132,
            "byteOffset" : 105048
        },
        {
            "buffer" : 0,
            "byteLength" : 176,
            "byteOffset" : 105180
        },
        {
            "buffer" : 0,
            "byteLength" : 132,
            "byteOffset" : 105356
        },
        {
            "buffer" : 0,
            "byteLength" : 132,
            "byteOffset" : 105488
        },
        {
            "buffer" : 0,
            "byteLength" : 176,
            "byteOffset" : 105620
        },
        {
            "buffer" : 0,
            "byteLength" : 132,
            "byteOffset" : 105796
        },
        {
            "buffer" : 0,
            "byteLength" : 132,
            "byteOffset" : 105928
        },
        {
            "buffer" : 0,
            "byteLength" : 176,
            "byteOffset" : 106060
        },
        {
            "buffer" : 0,
            "byteLength" : 132,
            "byteOffset" : 106236
        },
        {
            "buffer" : 0,
            "byteLength" : 132,
            "byteOffset" : 106368
        },
        {
            "buffer" : 0,
            "byteLength" : 176,
            "byteOffset" : 106500
        },
        {
            "buffer" : 0,
            "byteLength" : 132,
            "byteOffset" : 106676
        },
        {
            "buffer" : 0,
            "byteLength" : 132,
            "byteOffset" : 106808
        },
        {
            "buffer" : 0,
            "byteLength" : 176,
            "byteOffset" : 106940
        },
        {
            "buffer" : 0,
            "byteLength" : 132,
            "byteOffset" : 107116
        },
        {
            "buffer" : 0,
            "byteLength" : 132,
            "byteOffset" : 107248
        },
        {
            "buffer" : 0,
            "byteLength" : 176,
            "byteOffset" : 107380
        },
        {
            "buffer" : 0,
            "byteLength" : 132,
            "byteOffset" : 107556
        }
    ],
    "buffers" : [
        {
            "byteLength" : 107688,
            "uri" : "data:application/octet-stream;base64,"
        }
    ]
}
