{
    "asset" : {
        "copyright" : "Copyright 2020 Omabuarts Studio. For more info, visit https://omabuarts.com/license",
        "generator" : "Khronos glTF Blender I/O v1.1.46",
        "version" : "2.0"
    },
    "scene" : 0,
    "scenes" : [
        {
            "name" : "Scene",
            "nodes" : [
                9
            ]
        }
    ],
    "nodes" : [
        {
            "name" : "wing.L",
            "rotation" : [
                -0.050155747681856155,
                0.088300421833992,
                -0.993878185749054,
                0.04351658374071121
            ],
            "scale" : [
                1.0000007152557373,
                1.000000238418579,
                1.0000030994415283
            ],
            "translation" : [
                0.46203672885894775,
                0.8015994429588318,
                0.04316155984997749
            ]
        },
        {
            "name" : "wing.R",
            "rotation" : [
                -0.0501553975045681,
                -0.08830387890338898,
                0.9938778877258301,
                0.04351554811000824
            ],
            "scale" : [
                1.0000008344650269,
                1.0000001192092896,
                1.0000039339065552
            ],
            "translation" : [
                -0.46203672885894775,
                0.8015994429588318,
                0.043161336332559586
            ]
        },
        {
            "name" : "tail.01",
            "rotation" : [
                -0.7977099418640137,
                -7.188813810898864e-08,
                -9.509442833177673e-08,
                0.6030413508415222
            ],
            "translation" : [
                5.0988735011969766e-08,
                0.08621110022068024,
                -0.21386225521564484
            ]
        },
        {
            "name" : "hair",
            "rotation" : [
                0.025013510137796402,
                -7.735063434211042e-08,
                -7.138697100117497e-08,
                0.999687135219574
            ],
            "translation" : [
                -4.921633944832138e-08,
                1.484327793121338,
                0.20642828941345215
            ]
        },
        {
            "children" : [
                0,
                1,
                2,
                3
            ],
            "name" : "body",
            "rotation" : [
                0.7071068286895752,
                8.429370268459024e-08,
                8.429370268459024e-08,
                0.7071068286895752
            ],
            "translation" : [
                -1.171019476158824e-16,
                -3.935396671295166e-05,
                0.07309550791978836
            ]
        },
        {
            "name" : "feet.L",
            "rotation" : [
                -5.338508657359853e-08,
                -0.7071068286895752,
                0.7071068286895752,
                5.338508657359853e-08
            ],
            "translation" : [
                0.23649239540100098,
                -0.03495921194553375,
                0.36474284529685974
            ]
        },
        {
            "name" : "feet.R",
            "rotation" : [
                5.338508657359853e-08,
                -0.7071068286895752,
                0.7071068286895752,
                -5.338508657359853e-08
            ],
            "translation" : [
                -0.23649239540100098,
                -0.03495921194553375,
                0.36474284529685974
            ]
        },
        {
            "children" : [
                4,
                5,
                6
            ],
            "name" : "root",
            "rotation" : [
                -0.7071068286895752,
                0,
                0,
                0.7071068286895752
            ]
        },
        {
            "mesh" : 0,
            "name" : "Penguin",
            "skin" : 0
        },
        {
            "children" : [
                8,
                7
            ],
            "name" : "Rig"
        }
    ],
    "animations" : [
        {
            "channels" : [
                {
                    "sampler" : 0,
                    "target" : {
                        "node" : 7,
                        "path" : "translation"
                    }
                },
                {
                    "sampler" : 1,
                    "target" : {
                        "node" : 7,
                        "path" : "rotation"
                    }
                },
                {
                    "sampler" : 2,
                    "target" : {
                        "node" : 7,
                        "path" : "scale"
                    }
                },
                {
                    "sampler" : 3,
                    "target" : {
                        "node" : 4,
                        "path" : "translation"
                    }
                },
                {
                    "sampler" : 4,
                    "target" : {
                        "node" : 4,
                        "path" : "rotation"
                    }
                },
                {
                    "sampler" : 5,
                    "target" : {
                        "node" : 4,
                        "path" : "scale"
                    }
                },
                {
                    "sampler" : 6,
                    "target" : {
                        "node" : 0,
                        "path" : "translation"
                    }
                },
                {
                    "sampler" : 7,
                    "target" : {
                        "node" : 0,
                        "path" : "rotation"
                    }
                },
                {
                    "sampler" : 8,
                    "target" : {
                        "node" : 0,
                        "path" : "scale"
                    }
                },
                {
                    "sampler" : 9,
                    "target" : {
                        "node" : 1,
                        "path" : "translation"
                    }
                },
                {
                    "sampler" : 10,
                    "target" : {
                        "node" : 1,
                        "path" : "rotation"
                    }
                },
                {
                    "sampler" : 11,
                    "target" : {
                        "node" : 1,
                        "path" : "scale"
                    }
                },
                {
                    "sampler" : 12,
                    "target" : {
                        "node" : 2,
                        "path" : "translation"
                    }
                },
                {
                    "sampler" : 13,
                    "target" : {
                        "node" : 2,
                        "path" : "rotation"
                    }
                },
                {
                    "sampler" : 14,
                    "target" : {
                        "node" : 2,
                        "path" : "scale"
                    }
                },
                {
                    "sampler" : 15,
                    "target" : {
                        "node" : 3,
                        "path" : "translation"
                    }
                },
                {
                    "sampler" : 16,
                    "target" : {
                        "node" : 3,
                        "path" : "rotation"
                    }
                },
                {
                    "sampler" : 17,
                    "target" : {
                        "node" : 3,
                        "path" : "scale"
                    }
                },
                {
                    "sampler" : 18,
                    "target" : {
                        "node" : 5,
                        "path" : "translation"
                    }
                },
                {
                    "sampler" : 19,
                    "target" : {
                        "node" : 5,
                        "path" : "rotation"
                    }
                },
                {
                    "sampler" : 20,
                    "target" : {
                        "node" : 5,
                        "path" : "scale"
                    }
                },
                {
                    "sampler" : 21,
                    "target" : {
                        "node" : 6,
                        "path" : "translation"
                    }
                },
                {
                    "sampler" : 22,
                    "target" : {
                        "node" : 6,
                        "path" : "rotation"
                    }
                },
                {
                    "sampler" : 23,
                    "target" : {
                        "node" : 6,
                        "path" : "scale"
                    }
                }
            ],
            "name" : "Fear",
            "samplers" : [
                {
                    "input" : 7,
                    "interpolation" : "LINEAR",
                    "output" : 8
                },
                {
                    "input" : 7,
                    "interpolation" : "LINEAR",
                    "output" : 9
                },
                {
                    "input" : 7,
                    "interpolation" : "LINEAR",
                    "output" : 10
                },
                {
                    "input" : 7,
                    "interpolation" : "LINEAR",
                    "output" : 11
                },
                {
                    "input" : 7,
                    "interpolation" : "LINEAR",
                    "output" : 12
                },
                {
                    "input" : 7,
                    "interpolation" : "LINEAR",
                    "output" : 13
                },
                {
                    "input" : 7,
                    "interpolation" : "LINEAR",
                    "output" : 14
                },
                {
                    "input" : 7,
                    "interpolation" : "LINEAR",
                    "output" : 15
                },
                {
                    "input" : 7,
                    "interpolation" : "LINEAR",
                    "output" : 16
                },
                {
                    "input" : 7,
                    "interpolation" : "LINEAR",
                    "output" : 17
                },
                {
                    "input" : 7,
                    "interpolation" : "LINEAR",
                    "output" : 18
                },
                {
                    "input" : 7,
                    "interpolation" : "LINEAR",
                    "output" : 19
                },
                {
                    "input" : 7,
                    "interpolation" : "LINEAR",
                    "output" : 20
                },
                {
                    "input" : 7,
                    "interpolation" : "LINEAR",
                    "output" : 21
                },
                {
                    "input" : 7,
                    "interpolation" : "LINEAR",
                    "output" : 22
                },
                {
                    "input" : 7,
                    "interpolation" : "LINEAR",
                    "output" : 23
                },
                {
                    "input" : 7,
                    "interpolation" : "LINEAR",
                    "output" : 24
                },
                {
                    "input" : 7,
                    "interpolation" : "LINEAR",
                    "output" : 25
                },
                {
                    "input" : 7,
                    "interpolation" : "LINEAR",
                    "output" : 26
                },
                {
                    "input" : 7,
                    "interpolation" : "LINEAR",
                    "output" : 27
                },
                {
                    "input" : 7,
                    "interpolation" : "LINEAR",
                    "output" : 28
                },
                {
                    "input" : 7,
                    "interpolation" : "LINEAR",
                    "output" : 29
                },
                {
                    "input" : 7,
                    "interpolation" : "LINEAR",
                    "output" : 30
                },
                {
                    "input" : 7,
                    "interpolation" : "LINEAR",
                    "output" : 31
                }
            ]
        }
    ],
    "materials" : [
        {
            "doubleSided" : true,
            "emissiveFactor" : [
                0,
                0,
                0
            ],
            "name" : "Mat_Penguin",
            "pbrMetallicRoughness" : {
                "baseColorTexture" : {
                    "index" : 0,
                    "texCoord" : 0
                },
                "metallicFactor" : 0,
                "roughnessFactor" : 0.5
            }
        }
    ],
    "meshes" : [
        {
            "name" : "Penguin.005",
            "primitives" : [
                {
                    "attributes" : {
                        "POSITION" : 0,
                        "NORMAL" : 1,
                        "TEXCOORD_0" : 2,
                        "JOINTS_0" : 3,
                        "WEIGHTS_0" : 4
                    },
                    "indices" : 5,
                    "material" : 0
                }
            ]
        }
    ],
    "textures" : [
        {
            "source" : 0
        }
    ],
    "images" : [
        {
            "bufferView" : 6,
            "mimeType" : "image/png",
            "name" : "Tex_Penguin"
        }
    ],
    "skins" : [
        {
            "inverseBindMatrices" : 6,
            "joints" : [
                7,
                4,
                0,
                1,
                2,
                3,
                5,
                6
            ],
            "name" : "Rig"
        }
    ],
    "accessors" : [
        {
            "bufferView" : 0,
            "componentType" : 5126,
            "count" : 813,
            "max" : [
                0.5788782835006714,
                1.8948583602905273,
                0.6044304966926575
            ],
            "min" : [
                -0.5788782835006714,
                0.0002002716064453125,
                -0.4761204421520233
            ],
            "type" : "VEC3"
        },
        {
            "bufferView" : 1,
            "componentType" : 5126,
            "count" : 813,
            "type" : "VEC3"
        },
        {
            "bufferView" : 2,
            "componentType" : 5126,
            "count" : 813,
            "type" : "VEC2"
        },
        {
            "bufferView" : 3,
            "componentType" : 5123,
            "count" : 813,
            "type" : "VEC4"
        },
        {
            "bufferView" : 4,
            "componentType" : 5126,
            "count" : 813,
            "type" : "VEC4"
        },
        {
            "bufferView" : 5,
            "componentType" : 5123,
            "count" : 3504,
            "type" : "SCALAR"
        },
        {
            "bufferView" : 7,
            "componentType" : 5126,
            "count" : 8,
            "type" : "MAT4"
        },
        {
            "bufferView" : 8,
            "componentType" : 5126,
            "count" : 11,
            "max" : [
                0.4166666666666667
            ],
            "min" : [
                0
            ],
            "type" : "SCALAR"
        },
        {
            "bufferView" : 9,
            "componentType" : 5126,
            "count" : 11,
            "type" : "VEC3"
        },
        {
            "bufferView" : 10,
            "componentType" : 5126,
            "count" : 11,
            "type" : "VEC4"
        },
        {
            "bufferView" : 11,
            "componentType" : 5126,
            "count" : 11,
            "type" : "VEC3"
        },
        {
            "bufferView" : 12,
            "componentType" : 5126,
            "count" : 11,
            "type" : "VEC3"
        },
        {
            "bufferView" : 13,
            "componentType" : 5126,
            "count" : 11,
            "type" : "VEC4"
        },
        {
            "bufferView" : 14,
            "componentType" : 5126,
            "count" : 11,
            "type" : "VEC3"
        },
        {
            "bufferView" : 15,
            "componentType" : 5126,
            "count" : 11,
            "type" : "VEC3"
        },
        {
            "bufferView" : 16,
            "componentType" : 5126,
            "count" : 11,
            "type" : "VEC4"
        },
        {
            "bufferView" : 17,
            "componentType" : 5126,
            "count" : 11,
            "type" : "VEC3"
        },
        {
            "bufferView" : 18,
            "componentType" : 5126,
            "count" : 11,
            "type" : "VEC3"
        },
        {
            "bufferView" : 19,
            "componentType" : 5126,
            "count" : 11,
            "type" : "VEC4"
        },
        {
            "bufferView" : 20,
            "componentType" : 5126,
            "count" : 11,
            "type" : "VEC3"
        },
        {
            "bufferView" : 21,
            "componentType" : 5126,
            "count" : 11,
            "type" : "VEC3"
        },
        {
            "bufferView" : 22,
            "componentType" : 5126,
            "count" : 11,
            "type" : "VEC4"
        },
        {
            "bufferView" : 23,
            "componentType" : 5126,
            "count" : 11,
            "type" : "VEC3"
        },
        {
            "bufferView" : 24,
            "componentType" : 5126,
            "count" : 11,
            "type" : "VEC3"
        },
        {
            "bufferView" : 25,
            "componentType" : 5126,
            "count" : 11,
            "type" : "VEC4"
        },
        {
            "bufferView" : 26,
            "componentType" : 5126,
            "count" : 11,
            "type" : "VEC3"
        },
        {
            "bufferView" : 27,
            "componentType" : 5126,
            "count" : 11,
            "type" : "VEC3"
        },
        {
            "bufferView" : 28,
            "componentType" : 5126,
            "count" : 11,
            "type" : "VEC4"
        },
        {
            "bufferView" : 29,
            "componentType" : 5126,
            "count" : 11,
            "type" : "VEC3"
        },
        {
            "bufferView" : 30,
            "componentType" : 5126,
            "count" : 11,
            "type" : "VEC3"
        },
        {
            "bufferView" : 31,
            "componentType" : 5126,
            "count" : 11,
            "type" : "VEC4"
        },
        {
            "bufferView" : 32,
            "componentType" : 5126,
            "count" : 11,
            "type" : "VEC3"
        }
    ],
    "bufferViews" : [
        {
            "buffer" : 0,
            "byteLength" : 9756,
            "byteOffset" : 0
        },
        {
            "buffer" : 0,
            "byteLength" : 9756,
            "byteOffset" : 9756
        },
        {
            "buffer" : 0,
            "byteLength" : 6504,
            "byteOffset" : 19512
        },
        {
            "buffer" : 0,
            "byteLength" : 6504,
            "byteOffset" : 26016
        },
        {
            "buffer" : 0,
            "byteLength" : 13008,
            "byteOffset" : 32520
        },
        {
            "buffer" : 0,
            "byteLength" : 7008,
            "byteOffset" : 45528
        },
        {
            "buffer" : 0,
            "byteLength" : 168,
            "byteOffset" : 52536
        },
        {
            "buffer" : 0,
            "byteLength" : 512,
            "byteOffset" : 52704
        },
        {
            "buffer" : 0,
            "byteLength" : 44,
            "byteOffset" : 53216
        },
        {
            "buffer" : 0,
            "byteLength" : 132,
            "byteOffset" : 53260
        },
        {
            "buffer" : 0,
            "byteLength" : 176,
            "byteOffset" : 53392
        },
        {
            "buffer" : 0,
            "byteLength" : 132,
            "byteOffset" : 53568
        },
        {
            "buffer" : 0,
            "byteLength" : 132,
            "byteOffset" : 53700
        },
        {
            "buffer" : 0,
            "byteLength" : 176,
            "byteOffset" : 53832
        },
        {
            "buffer" : 0,
            "byteLength" : 132,
            "byteOffset" : 54008
        },
        {
            "buffer" : 0,
            "byteLength" : 132,
            "byteOffset" : 54140
        },
        {
            "buffer" : 0,
            "byteLength" : 176,
            "byteOffset" : 54272
        },
        {
            "buffer" : 0,
            "byteLength" : 132,
            "byteOffset" : 54448
        },
        {
            "buffer" : 0,
            "byteLength" : 132,
            "byteOffset" : 54580
        },
        {
            "buffer" : 0,
            "byteLength" : 176,
            "byteOffset" : 54712
        },
        {
            "buffer" : 0,
            "byteLength" : 132,
            "byteOffset" : 54888
        },
        {
            "buffer" : 0,
            "byteLength" : 132,
            "byteOffset" : 55020
        },
        {
            "buffer" : 0,
            "byteLength" : 176,
            "byteOffset" : 55152
        },
        {
            "buffer" : 0,
            "byteLength" : 132,
            "byteOffset" : 55328
        },
        {
            "buffer" : 0,
            "byteLength" : 132,
            "byteOffset" : 55460
        },
        {
            "buffer" : 0,
            "byteLength" : 176,
            "byteOffset" : 55592
        },
        {
            "buffer" : 0,
            "byteLength" : 132,
            "byteOffset" : 55768
        },
        {
            "buffer" : 0,
            "byteLength" : 132,
            "byteOffset" : 55900
        },
        {
            "buffer" : 0,
            "byteLength" : 176,
            "byteOffset" : 56032
        },
        {
            "buffer" : 0,
            "byteLength" : 132,
            "byteOffset" : 56208
        },
        {
            "buffer" : 0,
            "byteLength" : 132,
            "byteOffset" : 56340
        },
        {
            "buffer" : 0,
            "byteLength" : 176,
            "byteOffset" : 56472
        },
        {
            "buffer" : 0,
            "byteLength" : 132,
            "byteOffset" : 56648
        }
    ],
    "buffers" : [
        {
            "byteLength" : 56780,
            "uri" : "data:application/octet-stream;base64,"
        }
    ]
}
