{
    "asset" : {
        "copyright" : "Copyright 2020 Omabuarts Studio. For more info, visit https://omabuarts.com/license",
        "generator" : "Khronos glTF Blender I/O v1.1.46",
        "version" : "2.0"
    },
    "scene" : 0,
    "scenes" : [
        {
            "name" : "Scene",
            "nodes" : [
                9
            ]
        }
    ],
    "nodes" : [
        {
            "name" : "tail.03",
            "rotation" : [
                -0.32113873958587646,
                3.7514181214573505e-14,
                -2.0162147507107875e-07,
                0.9470321536064148
            ],
            "scale" : [
                1,
                0.9999999403953552,
                1
            ],
            "translation" : [
                -1.4210854715202004e-14,
                0.4391685128211975,
                0
            ]
        },
        {
            "children" : [
                0
            ],
            "name" : "tail.02",
            "rotation" : [
                0.25152531266212463,
                -2.202434910066487e-14,
                1.5791583507507312e-07,
                0.9678507447242737
            ],
            "scale" : [
                1,
                0.9999998807907104,
                0.9999998211860657
            ],
            "translation" : [
                2.4868995751603507e-14,
                0.4569436311721802,
                2.9802322387695312e-08
            ]
        },
        {
            "children" : [
                1
            ],
            "name" : "tail.01",
            "rotation" : [
                2.0486058360802417e-07,
                0.7577061653137207,
                -0.6525958776473999,
                -2.3785645453244797e-07
            ],
            "scale" : [
                0.9999999403953552,
                1.0094544887542725,
                0.9999983906745911
            ],
            "translation" : [
                0.0012706193374469876,
                0.24438810348510742,
                -0.23051631450653076
            ]
        },
        {
            "name" : "head",
            "rotation" : [
                -0.18948234617710114,
                2.6923048608296085e-06,
                -2.445563040964771e-06,
                0.9818841218948364
            ],
            "scale" : [
                1,
                0.9999998807907104,
                0.9999999403953552
            ],
            "translation" : [
                1.330182600352281e-12,
                0.4625512361526489,
                1.043081283569336e-07
            ]
        },
        {
            "children" : [
                3
            ],
            "name" : "neck.02",
            "rotation" : [
                -0.6257265210151672,
                -5.57930263767048e-07,
                -6.807797944929916e-06,
                0.7800425291061401
            ],
            "scale" : [
                1,
                0.9999999403953552,
                0.9999998807907104
            ],
            "translation" : [
                0,
                0.35769161581993103,
                0
            ]
        },
        {
            "children" : [
                4
            ],
            "name" : "neck.01",
            "rotation" : [
                3.310902911835001e-07,
                0.998367965221405,
                -0.05710871145129204,
                -5.788082034996478e-06
            ],
            "scale" : [
                1,
                0.9999998807907104,
                0.9999999403953552
            ],
            "translation" : [
                0.0012706193374469876,
                1.0342692136764526,
                -0.022805755957961082
            ]
        },
        {
            "children" : [
                2,
                5
            ],
            "name" : "body",
            "rotation" : [
                0.70710688829422,
                -9.358479377412135e-24,
                -9.358483321716661e-24,
                0.7071066498756409
            ],
            "translation" : [
                -0.0012706193374469876,
                -0.3443165123462677,
                0.03799358755350113
            ]
        },
        {
            "children" : [
                6
            ],
            "name" : "root",
            "rotation" : [
                -0.7071068286895752,
                0,
                0,
                0.7071068286895752
            ]
        },
        {
            "mesh" : 0,
            "name" : "Snake",
            "skin" : 0
        },
        {
            "children" : [
                8,
                7
            ],
            "name" : "Rig",
            "scale" : [
                1.100000023841858,
                1.100000023841858,
                1.100000023841858
            ]
        }
    ],
    "animations" : [
        {
            "channels" : [
                {
                    "sampler" : 0,
                    "target" : {
                        "node" : 7,
                        "path" : "translation"
                    }
                },
                {
                    "sampler" : 1,
                    "target" : {
                        "node" : 7,
                        "path" : "rotation"
                    }
                },
                {
                    "sampler" : 2,
                    "target" : {
                        "node" : 7,
                        "path" : "scale"
                    }
                },
                {
                    "sampler" : 3,
                    "target" : {
                        "node" : 6,
                        "path" : "translation"
                    }
                },
                {
                    "sampler" : 4,
                    "target" : {
                        "node" : 6,
                        "path" : "rotation"
                    }
                },
                {
                    "sampler" : 5,
                    "target" : {
                        "node" : 6,
                        "path" : "scale"
                    }
                },
                {
                    "sampler" : 6,
                    "target" : {
                        "node" : 2,
                        "path" : "translation"
                    }
                },
                {
                    "sampler" : 7,
                    "target" : {
                        "node" : 2,
                        "path" : "rotation"
                    }
                },
                {
                    "sampler" : 8,
                    "target" : {
                        "node" : 2,
                        "path" : "scale"
                    }
                },
                {
                    "sampler" : 9,
                    "target" : {
                        "node" : 1,
                        "path" : "translation"
                    }
                },
                {
                    "sampler" : 10,
                    "target" : {
                        "node" : 1,
                        "path" : "rotation"
                    }
                },
                {
                    "sampler" : 11,
                    "target" : {
                        "node" : 1,
                        "path" : "scale"
                    }
                },
                {
                    "sampler" : 12,
                    "target" : {
                        "node" : 0,
                        "path" : "translation"
                    }
                },
                {
                    "sampler" : 13,
                    "target" : {
                        "node" : 0,
                        "path" : "rotation"
                    }
                },
                {
                    "sampler" : 14,
                    "target" : {
                        "node" : 0,
                        "path" : "scale"
                    }
                },
                {
                    "sampler" : 15,
                    "target" : {
                        "node" : 5,
                        "path" : "translation"
                    }
                },
                {
                    "sampler" : 16,
                    "target" : {
                        "node" : 5,
                        "path" : "rotation"
                    }
                },
                {
                    "sampler" : 17,
                    "target" : {
                        "node" : 5,
                        "path" : "scale"
                    }
                },
                {
                    "sampler" : 18,
                    "target" : {
                        "node" : 4,
                        "path" : "translation"
                    }
                },
                {
                    "sampler" : 19,
                    "target" : {
                        "node" : 4,
                        "path" : "rotation"
                    }
                },
                {
                    "sampler" : 20,
                    "target" : {
                        "node" : 4,
                        "path" : "scale"
                    }
                },
                {
                    "sampler" : 21,
                    "target" : {
                        "node" : 3,
                        "path" : "translation"
                    }
                },
                {
                    "sampler" : 22,
                    "target" : {
                        "node" : 3,
                        "path" : "rotation"
                    }
                },
                {
                    "sampler" : 23,
                    "target" : {
                        "node" : 3,
                        "path" : "scale"
                    }
                }
            ],
            "name" : "Death",
            "samplers" : [
                {
                    "input" : 7,
                    "interpolation" : "LINEAR",
                    "output" : 8
                },
                {
                    "input" : 7,
                    "interpolation" : "LINEAR",
                    "output" : 9
                },
                {
                    "input" : 7,
                    "interpolation" : "LINEAR",
                    "output" : 10
                },
                {
                    "input" : 7,
                    "interpolation" : "LINEAR",
                    "output" : 11
                },
                {
                    "input" : 7,
                    "interpolation" : "LINEAR",
                    "output" : 12
                },
                {
                    "input" : 7,
                    "interpolation" : "LINEAR",
                    "output" : 13
                },
                {
                    "input" : 7,
                    "interpolation" : "LINEAR",
                    "output" : 14
                },
                {
                    "input" : 7,
                    "interpolation" : "LINEAR",
                    "output" : 15
                },
                {
                    "input" : 7,
                    "interpolation" : "LINEAR",
                    "output" : 16
                },
                {
                    "input" : 7,
                    "interpolation" : "LINEAR",
                    "output" : 17
                },
                {
                    "input" : 7,
                    "interpolation" : "LINEAR",
                    "output" : 18
                },
                {
                    "input" : 7,
                    "interpolation" : "LINEAR",
                    "output" : 19
                },
                {
                    "input" : 7,
                    "interpolation" : "LINEAR",
                    "output" : 20
                },
                {
                    "input" : 7,
                    "interpolation" : "LINEAR",
                    "output" : 21
                },
                {
                    "input" : 7,
                    "interpolation" : "LINEAR",
                    "output" : 22
                },
                {
                    "input" : 7,
                    "interpolation" : "LINEAR",
                    "output" : 23
                },
                {
                    "input" : 7,
                    "interpolation" : "LINEAR",
                    "output" : 24
                },
                {
                    "input" : 7,
                    "interpolation" : "LINEAR",
                    "output" : 25
                },
                {
                    "input" : 7,
                    "interpolation" : "LINEAR",
                    "output" : 26
                },
                {
                    "input" : 7,
                    "interpolation" : "LINEAR",
                    "output" : 27
                },
                {
                    "input" : 7,
                    "interpolation" : "LINEAR",
                    "output" : 28
                },
                {
                    "input" : 7,
                    "interpolation" : "LINEAR",
                    "output" : 29
                },
                {
                    "input" : 7,
                    "interpolation" : "LINEAR",
                    "output" : 30
                },
                {
                    "input" : 7,
                    "interpolation" : "LINEAR",
                    "output" : 31
                }
            ]
        }
    ],
    "materials" : [
        {
            "doubleSided" : true,
            "emissiveFactor" : [
                0,
                0,
                0
            ],
            "name" : "Mat_Snake",
            "pbrMetallicRoughness" : {
                "baseColorTexture" : {
                    "index" : 0,
                    "texCoord" : 0
                },
                "metallicFactor" : 0,
                "roughnessFactor" : 0.5
            }
        }
    ],
    "meshes" : [
        {
            "name" : "Cube.003",
            "primitives" : [
                {
                    "attributes" : {
                        "POSITION" : 0,
                        "NORMAL" : 1,
                        "TEXCOORD_0" : 2,
                        "JOINTS_0" : 3,
                        "WEIGHTS_0" : 4
                    },
                    "indices" : 5,
                    "material" : 0
                }
            ]
        }
    ],
    "textures" : [
        {
            "source" : 0
        }
    ],
    "images" : [
        {
            "bufferView" : 6,
            "mimeType" : "image/png",
            "name" : "Tex_Snake"
        }
    ],
    "skins" : [
        {
            "inverseBindMatrices" : 6,
            "joints" : [
                7,
                6,
                2,
                1,
                0,
                5,
                4,
                3
            ],
            "name" : "Rig"
        }
    ],
    "accessors" : [
        {
            "bufferView" : 0,
            "componentType" : 5126,
            "count" : 1009,
            "max" : [
                0.3112548589706421,
                1.989446997642517,
                1.7300604581832886
            ],
            "min" : [
                -0.3112548589706421,
                0.004944805521517992,
                -1.4507766962051392
            ],
            "type" : "VEC3"
        },
        {
            "bufferView" : 1,
            "componentType" : 5126,
            "count" : 1009,
            "type" : "VEC3"
        },
        {
            "bufferView" : 2,
            "componentType" : 5126,
            "count" : 1009,
            "type" : "VEC2"
        },
        {
            "bufferView" : 3,
            "componentType" : 5123,
            "count" : 1009,
            "type" : "VEC4"
        },
        {
            "bufferView" : 4,
            "componentType" : 5126,
            "count" : 1009,
            "type" : "VEC4"
        },
        {
            "bufferView" : 5,
            "componentType" : 5123,
            "count" : 2886,
            "type" : "SCALAR"
        },
        {
            "bufferView" : 7,
            "componentType" : 5126,
            "count" : 8,
            "type" : "MAT4"
        },
        {
            "bufferView" : 8,
            "componentType" : 5126,
            "count" : 11,
            "max" : [
                0.4166666666666667
            ],
            "min" : [
                0
            ],
            "type" : "SCALAR"
        },
        {
            "bufferView" : 9,
            "componentType" : 5126,
            "count" : 11,
            "type" : "VEC3"
        },
        {
            "bufferView" : 10,
            "componentType" : 5126,
            "count" : 11,
            "type" : "VEC4"
        },
        {
            "bufferView" : 11,
            "componentType" : 5126,
            "count" : 11,
            "type" : "VEC3"
        },
        {
            "bufferView" : 12,
            "componentType" : 5126,
            "count" : 11,
            "type" : "VEC3"
        },
        {
            "bufferView" : 13,
            "componentType" : 5126,
            "count" : 11,
            "type" : "VEC4"
        },
        {
            "bufferView" : 14,
            "componentType" : 5126,
            "count" : 11,
            "type" : "VEC3"
        },
        {
            "bufferView" : 15,
            "componentType" : 5126,
            "count" : 11,
            "type" : "VEC3"
        },
        {
            "bufferView" : 16,
            "componentType" : 5126,
            "count" : 11,
            "type" : "VEC4"
        },
        {
            "bufferView" : 17,
            "componentType" : 5126,
            "count" : 11,
            "type" : "VEC3"
        },
        {
            "bufferView" : 18,
            "componentType" : 5126,
            "count" : 11,
            "type" : "VEC3"
        },
        {
            "bufferView" : 19,
            "componentType" : 5126,
            "count" : 11,
            "type" : "VEC4"
        },
        {
            "bufferView" : 20,
            "componentType" : 5126,
            "count" : 11,
            "type" : "VEC3"
        },
        {
            "bufferView" : 21,
            "componentType" : 5126,
            "count" : 11,
            "type" : "VEC3"
        },
        {
            "bufferView" : 22,
            "componentType" : 5126,
            "count" : 11,
            "type" : "VEC4"
        },
        {
            "bufferView" : 23,
            "componentType" : 5126,
            "count" : 11,
            "type" : "VEC3"
        },
        {
            "bufferView" : 24,
            "componentType" : 5126,
            "count" : 11,
            "type" : "VEC3"
        },
        {
            "bufferView" : 25,
            "componentType" : 5126,
            "count" : 11,
            "type" : "VEC4"
        },
        {
            "bufferView" : 26,
            "componentType" : 5126,
            "count" : 11,
            "type" : "VEC3"
        },
        {
            "bufferView" : 27,
            "componentType" : 5126,
            "count" : 11,
            "type" : "VEC3"
        },
        {
            "bufferView" : 28,
            "componentType" : 5126,
            "count" : 11,
            "type" : "VEC4"
        },
        {
            "bufferView" : 29,
            "componentType" : 5126,
            "count" : 11,
            "type" : "VEC3"
        },
        {
            "bufferView" : 30,
            "componentType" : 5126,
            "count" : 11,
            "type" : "VEC3"
        },
        {
            "bufferView" : 31,
            "componentType" : 5126,
            "count" : 11,
            "type" : "VEC4"
        },
        {
            "bufferView" : 32,
            "componentType" : 5126,
            "count" : 11,
            "type" : "VEC3"
        }
    ],
    "bufferViews" : [
        {
            "buffer" : 0,
            "byteLength" : 12108,
            "byteOffset" : 0
        },
        {
            "buffer" : 0,
            "byteLength" : 12108,
            "byteOffset" : 12108
        },
        {
            "buffer" : 0,
            "byteLength" : 8072,
            "byteOffset" : 24216
        },
        {
            "buffer" : 0,
            "byteLength" : 8072,
            "byteOffset" : 32288
        },
        {
            "buffer" : 0,
            "byteLength" : 16144,
            "byteOffset" : 40360
        },
        {
            "buffer" : 0,
            "byteLength" : 5772,
            "byteOffset" : 56504
        },
        {
            "buffer" : 0,
            "byteLength" : 188,
            "byteOffset" : 62276
        },
        {
            "buffer" : 0,
            "byteLength" : 512,
            "byteOffset" : 62464
        },
        {
            "buffer" : 0,
            "byteLength" : 44,
            "byteOffset" : 62976
        },
        {
            "buffer" : 0,
            "byteLength" : 132,
            "byteOffset" : 63020
        },
        {
            "buffer" : 0,
            "byteLength" : 176,
            "byteOffset" : 63152
        },
        {
            "buffer" : 0,
            "byteLength" : 132,
            "byteOffset" : 63328
        },
        {
            "buffer" : 0,
            "byteLength" : 132,
            "byteOffset" : 63460
        },
        {
            "buffer" : 0,
            "byteLength" : 176,
            "byteOffset" : 63592
        },
        {
            "buffer" : 0,
            "byteLength" : 132,
            "byteOffset" : 63768
        },
        {
            "buffer" : 0,
            "byteLength" : 132,
            "byteOffset" : 63900
        },
        {
            "buffer" : 0,
            "byteLength" : 176,
            "byteOffset" : 64032
        },
        {
            "buffer" : 0,
            "byteLength" : 132,
            "byteOffset" : 64208
        },
        {
            "buffer" : 0,
            "byteLength" : 132,
            "byteOffset" : 64340
        },
        {
            "buffer" : 0,
            "byteLength" : 176,
            "byteOffset" : 64472
        },
        {
            "buffer" : 0,
            "byteLength" : 132,
            "byteOffset" : 64648
        },
        {
            "buffer" : 0,
            "byteLength" : 132,
            "byteOffset" : 64780
        },
        {
            "buffer" : 0,
            "byteLength" : 176,
            "byteOffset" : 64912
        },
        {
            "buffer" : 0,
            "byteLength" : 132,
            "byteOffset" : 65088
        },
        {
            "buffer" : 0,
            "byteLength" : 132,
            "byteOffset" : 65220
        },
        {
            "buffer" : 0,
            "byteLength" : 176,
            "byteOffset" : 65352
        },
        {
            "buffer" : 0,
            "byteLength" : 132,
            "byteOffset" : 65528
        },
        {
            "buffer" : 0,
            "byteLength" : 132,
            "byteOffset" : 65660
        },
        {
            "buffer" : 0,
            "byteLength" : 176,
            "byteOffset" : 65792
        },
        {
            "buffer" : 0,
            "byteLength" : 132,
            "byteOffset" : 65968
        },
        {
            "buffer" : 0,
            "byteLength" : 132,
            "byteOffset" : 66100
        },
        {
            "buffer" : 0,
            "byteLength" : 176,
            "byteOffset" : 66232
        },
        {
            "buffer" : 0,
            "byteLength" : 132,
            "byteOffset" : 66408
        }
    ],
    "buffers" : [
        {
            "byteLength" : 66540,
            "uri" : "data:application/octet-stream;base64,"
        }
    ]
}
