{
    "asset" : {
        "copyright" : "Copyright 2020 Omabuarts Studio. For more info, visit https://omabuarts.com/license",
        "generator" : "Khronos glTF Blender I/O v1.1.46",
        "version" : "2.0"
    },
    "scene" : 0,
    "scenes" : [
        {
            "name" : "Scene",
            "nodes" : [
                9
            ]
        }
    ],
    "nodes" : [
        {
            "name" : "tail.01",
            "rotation" : [
                -0.5506897568702698,
                3.8306028271248294e-14,
                -1.3129469778050407e-07,
                0.8347100019454956
            ],
            "scale" : [
                1,
                0.9999999403953552,
                0.9999999403953552
            ],
            "translation" : [
                1.3292590494984324e-07,
                0.4724794328212738,
                -0.20398367941379547
            ]
        },
        {
            "name" : "tail.02",
            "rotation" : [
                -0.7856126427650452,
                -7.748204922108926e-08,
                -9.737743056348336e-08,
                0.618718683719635
            ],
            "scale" : [
                1,
                0.9999998211860657,
                0.9999998211860657
            ],
            "translation" : [
                1.3427960254830396e-07,
                0.32647398114204407,
                -0.19758452475070953
            ]
        },
        {
            "name" : "fin.01",
            "rotation" : [
                -0.4105745553970337,
                -2.8625224413048045e-10,
                -9.817487978125428e-08,
                0.911827027797699
            ],
            "translation" : [
                4.7969894723109974e-08,
                0.7886791825294495,
                0.04983975738286972
            ]
        },
        {
            "name" : "fin.02",
            "rotation" : [
                -0.9021143317222595,
                9.880148050612006e-14,
                -2.15080703469539e-07,
                0.4314972162246704
            ],
            "scale" : [
                1,
                0.9999998807907104,
                0.9999995827674866
            ],
            "translation" : [
                1.234193121035787e-07,
                0.0046547651290893555,
                -0.08305059373378754
            ]
        },
        {
            "name" : "fin.L",
            "rotation" : [
                0.03958265110850334,
                0.17405451834201813,
                -0.9497873783111572,
                0.2569865882396698
            ],
            "scale" : [
                1.0000003576278687,
                1,
                1.000000238418579
            ],
            "translation" : [
                0.18943661451339722,
                0.11175280809402466,
                0.31135523319244385
            ]
        },
        {
            "name" : "fin.R",
            "rotation" : [
                0.03958192467689514,
                -0.17405322194099426,
                0.9497876763343811,
                0.2569870352745056
            ],
            "scale" : [
                0.9999992847442627,
                0.9999998211860657,
                0.9999997019767761
            ],
            "translation" : [
                -0.18943676352500916,
                0.11175280809402466,
                0.3113551139831543
            ]
        },
        {
            "children" : [
                0,
                1,
                2,
                3,
                4,
                5
            ],
            "name" : "body",
            "rotation" : [
                0.7071068286895752,
                8.429369557916289e-08,
                8.429369557916289e-08,
                0.7071068286895752
            ],
            "translation" : [
                0,
                0.04091325402259827,
                0.3376491665840149
            ]
        },
        {
            "children" : [
                6
            ],
            "name" : "root",
            "rotation" : [
                -0.7071068286895752,
                0,
                0,
                0.7071068286895752
            ]
        },
        {
            "mesh" : 0,
            "name" : "Goldfish",
            "skin" : 0
        },
        {
            "children" : [
                8,
                7
            ],
            "name" : "Rig"
        }
    ],
    "animations" : [
        {
            "channels" : [
                {
                    "sampler" : 0,
                    "target" : {
                        "node" : 7,
                        "path" : "translation"
                    }
                },
                {
                    "sampler" : 1,
                    "target" : {
                        "node" : 7,
                        "path" : "rotation"
                    }
                },
                {
                    "sampler" : 2,
                    "target" : {
                        "node" : 7,
                        "path" : "scale"
                    }
                },
                {
                    "sampler" : 3,
                    "target" : {
                        "node" : 6,
                        "path" : "translation"
                    }
                },
                {
                    "sampler" : 4,
                    "target" : {
                        "node" : 6,
                        "path" : "rotation"
                    }
                },
                {
                    "sampler" : 5,
                    "target" : {
                        "node" : 6,
                        "path" : "scale"
                    }
                },
                {
                    "sampler" : 6,
                    "target" : {
                        "node" : 0,
                        "path" : "translation"
                    }
                },
                {
                    "sampler" : 7,
                    "target" : {
                        "node" : 0,
                        "path" : "rotation"
                    }
                },
                {
                    "sampler" : 8,
                    "target" : {
                        "node" : 0,
                        "path" : "scale"
                    }
                },
                {
                    "sampler" : 9,
                    "target" : {
                        "node" : 1,
                        "path" : "translation"
                    }
                },
                {
                    "sampler" : 10,
                    "target" : {
                        "node" : 1,
                        "path" : "rotation"
                    }
                },
                {
                    "sampler" : 11,
                    "target" : {
                        "node" : 1,
                        "path" : "scale"
                    }
                },
                {
                    "sampler" : 12,
                    "target" : {
                        "node" : 2,
                        "path" : "translation"
                    }
                },
                {
                    "sampler" : 13,
                    "target" : {
                        "node" : 2,
                        "path" : "rotation"
                    }
                },
                {
                    "sampler" : 14,
                    "target" : {
                        "node" : 2,
                        "path" : "scale"
                    }
                },
                {
                    "sampler" : 15,
                    "target" : {
                        "node" : 3,
                        "path" : "translation"
                    }
                },
                {
                    "sampler" : 16,
                    "target" : {
                        "node" : 3,
                        "path" : "rotation"
                    }
                },
                {
                    "sampler" : 17,
                    "target" : {
                        "node" : 3,
                        "path" : "scale"
                    }
                },
                {
                    "sampler" : 18,
                    "target" : {
                        "node" : 4,
                        "path" : "translation"
                    }
                },
                {
                    "sampler" : 19,
                    "target" : {
                        "node" : 4,
                        "path" : "rotation"
                    }
                },
                {
                    "sampler" : 20,
                    "target" : {
                        "node" : 4,
                        "path" : "scale"
                    }
                },
                {
                    "sampler" : 21,
                    "target" : {
                        "node" : 5,
                        "path" : "translation"
                    }
                },
                {
                    "sampler" : 22,
                    "target" : {
                        "node" : 5,
                        "path" : "rotation"
                    }
                },
                {
                    "sampler" : 23,
                    "target" : {
                        "node" : 5,
                        "path" : "scale"
                    }
                }
            ],
            "name" : "Idle",
            "samplers" : [
                {
                    "input" : 7,
                    "interpolation" : "LINEAR",
                    "output" : 8
                },
                {
                    "input" : 7,
                    "interpolation" : "LINEAR",
                    "output" : 9
                },
                {
                    "input" : 7,
                    "interpolation" : "LINEAR",
                    "output" : 10
                },
                {
                    "input" : 7,
                    "interpolation" : "LINEAR",
                    "output" : 11
                },
                {
                    "input" : 7,
                    "interpolation" : "LINEAR",
                    "output" : 12
                },
                {
                    "input" : 7,
                    "interpolation" : "LINEAR",
                    "output" : 13
                },
                {
                    "input" : 7,
                    "interpolation" : "LINEAR",
                    "output" : 14
                },
                {
                    "input" : 7,
                    "interpolation" : "LINEAR",
                    "output" : 15
                },
                {
                    "input" : 7,
                    "interpolation" : "LINEAR",
                    "output" : 16
                },
                {
                    "input" : 7,
                    "interpolation" : "LINEAR",
                    "output" : 17
                },
                {
                    "input" : 7,
                    "interpolation" : "LINEAR",
                    "output" : 18
                },
                {
                    "input" : 7,
                    "interpolation" : "LINEAR",
                    "output" : 19
                },
                {
                    "input" : 7,
                    "interpolation" : "LINEAR",
                    "output" : 20
                },
                {
                    "input" : 7,
                    "interpolation" : "LINEAR",
                    "output" : 21
                },
                {
                    "input" : 7,
                    "interpolation" : "LINEAR",
                    "output" : 22
                },
                {
                    "input" : 7,
                    "interpolation" : "LINEAR",
                    "output" : 23
                },
                {
                    "input" : 7,
                    "interpolation" : "LINEAR",
                    "output" : 24
                },
                {
                    "input" : 7,
                    "interpolation" : "LINEAR",
                    "output" : 25
                },
                {
                    "input" : 7,
                    "interpolation" : "LINEAR",
                    "output" : 26
                },
                {
                    "input" : 7,
                    "interpolation" : "LINEAR",
                    "output" : 27
                },
                {
                    "input" : 7,
                    "interpolation" : "LINEAR",
                    "output" : 28
                },
                {
                    "input" : 7,
                    "interpolation" : "LINEAR",
                    "output" : 29
                },
                {
                    "input" : 7,
                    "interpolation" : "LINEAR",
                    "output" : 30
                },
                {
                    "input" : 7,
                    "interpolation" : "LINEAR",
                    "output" : 31
                }
            ]
        }
    ],
    "materials" : [
        {
            "doubleSided" : true,
            "emissiveFactor" : [
                0,
                0,
                0
            ],
            "name" : "Mat_Goldfish",
            "pbrMetallicRoughness" : {
                "baseColorTexture" : {
                    "index" : 0,
                    "texCoord" : 0
                },
                "metallicFactor" : 0,
                "roughnessFactor" : 0.5
            }
        }
    ],
    "meshes" : [
        {
            "name" : "Goldfish_LOD1",
            "primitives" : [
                {
                    "attributes" : {
                        "POSITION" : 0,
                        "NORMAL" : 1,
                        "TEXCOORD_0" : 2,
                        "JOINTS_0" : 3,
                        "WEIGHTS_0" : 4
                    },
                    "indices" : 5,
                    "material" : 0
                }
            ]
        }
    ],
    "textures" : [
        {
            "source" : 0
        }
    ],
    "images" : [
        {
            "bufferView" : 6,
            "mimeType" : "image/png",
            "name" : "Tex_Goldfish"
        }
    ],
    "skins" : [
        {
            "inverseBindMatrices" : 6,
            "joints" : [
                7,
                6,
                0,
                1,
                2,
                3,
                4,
                5
            ],
            "name" : "Rig"
        }
    ],
    "accessors" : [
        {
            "bufferView" : 0,
            "componentType" : 5126,
            "count" : 849,
            "max" : [
                0.3786715567111969,
                1.2618553638458252,
                0.8250606656074524
            ],
            "min" : [
                -0.3786715567111969,
                0.025539733469486237,
                -0.9841508865356445
            ],
            "type" : "VEC3"
        },
        {
            "bufferView" : 1,
            "componentType" : 5126,
            "count" : 849,
            "type" : "VEC3"
        },
        {
            "bufferView" : 2,
            "componentType" : 5126,
            "count" : 849,
            "type" : "VEC2"
        },
        {
            "bufferView" : 3,
            "componentType" : 5123,
            "count" : 849,
            "type" : "VEC4"
        },
        {
            "bufferView" : 4,
            "componentType" : 5126,
            "count" : 849,
            "type" : "VEC4"
        },
        {
            "bufferView" : 5,
            "componentType" : 5123,
            "count" : 2766,
            "type" : "SCALAR"
        },
        {
            "bufferView" : 7,
            "componentType" : 5126,
            "count" : 8,
            "type" : "MAT4"
        },
        {
            "bufferView" : 8,
            "componentType" : 5126,
            "count" : 33,
            "max" : [
                1.3333333333333333
            ],
            "min" : [
                0
            ],
            "type" : "SCALAR"
        },
        {
            "bufferView" : 9,
            "componentType" : 5126,
            "count" : 33,
            "type" : "VEC3"
        },
        {
            "bufferView" : 10,
            "componentType" : 5126,
            "count" : 33,
            "type" : "VEC4"
        },
        {
            "bufferView" : 11,
            "componentType" : 5126,
            "count" : 33,
            "type" : "VEC3"
        },
        {
            "bufferView" : 12,
            "componentType" : 5126,
            "count" : 33,
            "type" : "VEC3"
        },
        {
            "bufferView" : 13,
            "componentType" : 5126,
            "count" : 33,
            "type" : "VEC4"
        },
        {
            "bufferView" : 14,
            "componentType" : 5126,
            "count" : 33,
            "type" : "VEC3"
        },
        {
            "bufferView" : 15,
            "componentType" : 5126,
            "count" : 33,
            "type" : "VEC3"
        },
        {
            "bufferView" : 16,
            "componentType" : 5126,
            "count" : 33,
            "type" : "VEC4"
        },
        {
            "bufferView" : 17,
            "componentType" : 5126,
            "count" : 33,
            "type" : "VEC3"
        },
        {
            "bufferView" : 18,
            "componentType" : 5126,
            "count" : 33,
            "type" : "VEC3"
        },
        {
            "bufferView" : 19,
            "componentType" : 5126,
            "count" : 33,
            "type" : "VEC4"
        },
        {
            "bufferView" : 20,
            "componentType" : 5126,
            "count" : 33,
            "type" : "VEC3"
        },
        {
            "bufferView" : 21,
            "componentType" : 5126,
            "count" : 33,
            "type" : "VEC3"
        },
        {
            "bufferView" : 22,
            "componentType" : 5126,
            "count" : 33,
            "type" : "VEC4"
        },
        {
            "bufferView" : 23,
            "componentType" : 5126,
            "count" : 33,
            "type" : "VEC3"
        },
        {
            "bufferView" : 24,
            "componentType" : 5126,
            "count" : 33,
            "type" : "VEC3"
        },
        {
            "bufferView" : 25,
            "componentType" : 5126,
            "count" : 33,
            "type" : "VEC4"
        },
        {
            "bufferView" : 26,
            "componentType" : 5126,
            "count" : 33,
            "type" : "VEC3"
        },
        {
            "bufferView" : 27,
            "componentType" : 5126,
            "count" : 33,
            "type" : "VEC3"
        },
        {
            "bufferView" : 28,
            "componentType" : 5126,
            "count" : 33,
            "type" : "VEC4"
        },
        {
            "bufferView" : 29,
            "componentType" : 5126,
            "count" : 33,
            "type" : "VEC3"
        },
        {
            "bufferView" : 30,
            "componentType" : 5126,
            "count" : 33,
            "type" : "VEC3"
        },
        {
            "bufferView" : 31,
            "componentType" : 5126,
            "count" : 33,
            "type" : "VEC4"
        },
        {
            "bufferView" : 32,
            "componentType" : 5126,
            "count" : 33,
            "type" : "VEC3"
        }
    ],
    "bufferViews" : [
        {
            "buffer" : 0,
            "byteLength" : 10188,
            "byteOffset" : 0
        },
        {
            "buffer" : 0,
            "byteLength" : 10188,
            "byteOffset" : 10188
        },
        {
            "buffer" : 0,
            "byteLength" : 6792,
            "byteOffset" : 20376
        },
        {
            "buffer" : 0,
            "byteLength" : 6792,
            "byteOffset" : 27168
        },
        {
            "buffer" : 0,
            "byteLength" : 13584,
            "byteOffset" : 33960
        },
        {
            "buffer" : 0,
            "byteLength" : 5532,
            "byteOffset" : 47544
        },
        {
            "buffer" : 0,
            "byteLength" : 186,
            "byteOffset" : 53076
        },
        {
            "buffer" : 0,
            "byteLength" : 512,
            "byteOffset" : 53264
        },
        {
            "buffer" : 0,
            "byteLength" : 132,
            "byteOffset" : 53776
        },
        {
            "buffer" : 0,
            "byteLength" : 396,
            "byteOffset" : 53908
        },
        {
            "buffer" : 0,
            "byteLength" : 528,
            "byteOffset" : 54304
        },
        {
            "buffer" : 0,
            "byteLength" : 396,
            "byteOffset" : 54832
        },
        {
            "buffer" : 0,
            "byteLength" : 396,
            "byteOffset" : 55228
        },
        {
            "buffer" : 0,
            "byteLength" : 528,
            "byteOffset" : 55624
        },
        {
            "buffer" : 0,
            "byteLength" : 396,
            "byteOffset" : 56152
        },
        {
            "buffer" : 0,
            "byteLength" : 396,
            "byteOffset" : 56548
        },
        {
            "buffer" : 0,
            "byteLength" : 528,
            "byteOffset" : 56944
        },
        {
            "buffer" : 0,
            "byteLength" : 396,
            "byteOffset" : 57472
        },
        {
            "buffer" : 0,
            "byteLength" : 396,
            "byteOffset" : 57868
        },
        {
            "buffer" : 0,
            "byteLength" : 528,
            "byteOffset" : 58264
        },
        {
            "buffer" : 0,
            "byteLength" : 396,
            "byteOffset" : 58792
        },
        {
            "buffer" : 0,
            "byteLength" : 396,
            "byteOffset" : 59188
        },
        {
            "buffer" : 0,
            "byteLength" : 528,
            "byteOffset" : 59584
        },
        {
            "buffer" : 0,
            "byteLength" : 396,
            "byteOffset" : 60112
        },
        {
            "buffer" : 0,
            "byteLength" : 396,
            "byteOffset" : 60508
        },
        {
            "buffer" : 0,
            "byteLength" : 528,
            "byteOffset" : 60904
        },
        {
            "buffer" : 0,
            "byteLength" : 396,
            "byteOffset" : 61432
        },
        {
            "buffer" : 0,
            "byteLength" : 396,
            "byteOffset" : 61828
        },
        {
            "buffer" : 0,
            "byteLength" : 528,
            "byteOffset" : 62224
        },
        {
            "buffer" : 0,
            "byteLength" : 396,
            "byteOffset" : 62752
        },
        {
            "buffer" : 0,
            "byteLength" : 396,
            "byteOffset" : 63148
        },
        {
            "buffer" : 0,
            "byteLength" : 528,
            "byteOffset" : 63544
        },
        {
            "buffer" : 0,
            "byteLength" : 396,
            "byteOffset" : 64072
        }
    ],
    "buffers" : [
        {
            "byteLength" : 64468,
            "uri" : "data:application/octet-stream;base64,"
        }
    ]
}
