{
    "asset" : {
        "copyright" : "Copyright 2020 Omabuarts Studio. For more info, visit https://omabuarts.com/license",
        "generator" : "Khronos glTF Blender I/O v1.1.46",
        "version" : "2.0"
    },
    "scene" : 0,
    "scenes" : [
        {
            "name" : "Scene",
            "nodes" : [
                9
            ]
        }
    ],
    "nodes" : [
        {
            "name" : "wing.L",
            "rotation" : [
                -0.042578812688589096,
                0.19221912324428558,
                -0.9795340299606323,
                0.04185860976576805
            ],
            "scale" : [
                0.9999999403953552,
                0.9999995231628418,
                0.9999978542327881
            ],
            "translation" : [
                0.5174059271812439,
                0.8713754415512085,
                0.1405935138463974
            ]
        },
        {
            "name" : "wing.R",
            "rotation" : [
                -0.04258027672767639,
                -0.19221872091293335,
                0.9795339703559875,
                0.04185936227440834
            ],
            "scale" : [
                0.9999999403953552,
                0.9999994039535522,
                0.9999977350234985
            ],
            "translation" : [
                -0.5174060463905334,
                0.8713754415512085,
                0.1405932754278183
            ]
        },
        {
            "name" : "tail.01",
            "rotation" : [
                -0.8313556909561157,
                -6.624942727739835e-08,
                -9.910532128287741e-08,
                0.5557407736778259
            ],
            "scale" : [
                1,
                1,
                0.9999998807907104
            ],
            "translation" : [
                9.764861630401356e-08,
                0.16845883429050446,
                -0.4095679819583893
            ]
        },
        {
            "name" : "tail.02",
            "rotation" : [
                -0.8701566457748413,
                -5.874341724165788e-08,
                -1.0373068448643608e-07,
                0.4927753508090973
            ],
            "scale" : [
                1,
                1,
                0.9999999403953552
            ],
            "translation" : [
                8.666620487929322e-08,
                0.10544700920581818,
                -0.36350440979003906
            ]
        },
        {
            "children" : [
                0,
                1,
                2,
                3
            ],
            "name" : "body",
            "rotation" : [
                0.7071068286895752,
                8.429370268459024e-08,
                8.429370268459024e-08,
                0.7071068286895752
            ],
            "translation" : [
                -1.2108189073723434e-16,
                -0.02121073007583618,
                0.24963735044002533
            ]
        },
        {
            "name" : "feet.L",
            "rotation" : [
                -5.338508657359853e-08,
                -0.7071068286895752,
                0.7071068286895752,
                5.338508657359853e-08
            ],
            "translation" : [
                0.2445300668478012,
                -2.9802322387695312e-08,
                0.34536051750183105
            ]
        },
        {
            "name" : "feet.R",
            "rotation" : [
                5.338508657359853e-08,
                -0.7071068286895752,
                0.7071068286895752,
                -5.338508657359853e-08
            ],
            "translation" : [
                -0.2445300668478012,
                -2.9802322387695312e-08,
                0.34536051750183105
            ]
        },
        {
            "children" : [
                4,
                5,
                6
            ],
            "name" : "root",
            "rotation" : [
                -0.7071068286895752,
                0,
                0,
                0.7071068286895752
            ],
            "scale" : [
                1,
                0.9999999403953552,
                1
            ]
        },
        {
            "mesh" : 0,
            "name" : "Owl",
            "skin" : 0
        },
        {
            "children" : [
                8,
                7
            ],
            "name" : "Rig"
        }
    ],
    "animations" : [
        {
            "channels" : [
                {
                    "sampler" : 0,
                    "target" : {
                        "node" : 7,
                        "path" : "translation"
                    }
                },
                {
                    "sampler" : 1,
                    "target" : {
                        "node" : 7,
                        "path" : "rotation"
                    }
                },
                {
                    "sampler" : 2,
                    "target" : {
                        "node" : 7,
                        "path" : "scale"
                    }
                },
                {
                    "sampler" : 3,
                    "target" : {
                        "node" : 4,
                        "path" : "translation"
                    }
                },
                {
                    "sampler" : 4,
                    "target" : {
                        "node" : 4,
                        "path" : "rotation"
                    }
                },
                {
                    "sampler" : 5,
                    "target" : {
                        "node" : 4,
                        "path" : "scale"
                    }
                },
                {
                    "sampler" : 6,
                    "target" : {
                        "node" : 0,
                        "path" : "translation"
                    }
                },
                {
                    "sampler" : 7,
                    "target" : {
                        "node" : 0,
                        "path" : "rotation"
                    }
                },
                {
                    "sampler" : 8,
                    "target" : {
                        "node" : 0,
                        "path" : "scale"
                    }
                },
                {
                    "sampler" : 9,
                    "target" : {
                        "node" : 1,
                        "path" : "translation"
                    }
                },
                {
                    "sampler" : 10,
                    "target" : {
                        "node" : 1,
                        "path" : "rotation"
                    }
                },
                {
                    "sampler" : 11,
                    "target" : {
                        "node" : 1,
                        "path" : "scale"
                    }
                },
                {
                    "sampler" : 12,
                    "target" : {
                        "node" : 2,
                        "path" : "translation"
                    }
                },
                {
                    "sampler" : 13,
                    "target" : {
                        "node" : 2,
                        "path" : "rotation"
                    }
                },
                {
                    "sampler" : 14,
                    "target" : {
                        "node" : 2,
                        "path" : "scale"
                    }
                },
                {
                    "sampler" : 15,
                    "target" : {
                        "node" : 3,
                        "path" : "translation"
                    }
                },
                {
                    "sampler" : 16,
                    "target" : {
                        "node" : 3,
                        "path" : "rotation"
                    }
                },
                {
                    "sampler" : 17,
                    "target" : {
                        "node" : 3,
                        "path" : "scale"
                    }
                },
                {
                    "sampler" : 18,
                    "target" : {
                        "node" : 5,
                        "path" : "translation"
                    }
                },
                {
                    "sampler" : 19,
                    "target" : {
                        "node" : 5,
                        "path" : "rotation"
                    }
                },
                {
                    "sampler" : 20,
                    "target" : {
                        "node" : 5,
                        "path" : "scale"
                    }
                },
                {
                    "sampler" : 21,
                    "target" : {
                        "node" : 6,
                        "path" : "translation"
                    }
                },
                {
                    "sampler" : 22,
                    "target" : {
                        "node" : 6,
                        "path" : "rotation"
                    }
                },
                {
                    "sampler" : 23,
                    "target" : {
                        "node" : 6,
                        "path" : "scale"
                    }
                }
            ],
            "name" : "Roll",
            "samplers" : [
                {
                    "input" : 7,
                    "interpolation" : "LINEAR",
                    "output" : 8
                },
                {
                    "input" : 7,
                    "interpolation" : "LINEAR",
                    "output" : 9
                },
                {
                    "input" : 7,
                    "interpolation" : "LINEAR",
                    "output" : 10
                },
                {
                    "input" : 7,
                    "interpolation" : "LINEAR",
                    "output" : 11
                },
                {
                    "input" : 7,
                    "interpolation" : "LINEAR",
                    "output" : 12
                },
                {
                    "input" : 7,
                    "interpolation" : "LINEAR",
                    "output" : 13
                },
                {
                    "input" : 7,
                    "interpolation" : "LINEAR",
                    "output" : 14
                },
                {
                    "input" : 7,
                    "interpolation" : "LINEAR",
                    "output" : 15
                },
                {
                    "input" : 7,
                    "interpolation" : "LINEAR",
                    "output" : 16
                },
                {
                    "input" : 7,
                    "interpolation" : "LINEAR",
                    "output" : 17
                },
                {
                    "input" : 7,
                    "interpolation" : "LINEAR",
                    "output" : 18
                },
                {
                    "input" : 7,
                    "interpolation" : "LINEAR",
                    "output" : 19
                },
                {
                    "input" : 7,
                    "interpolation" : "LINEAR",
                    "output" : 20
                },
                {
                    "input" : 7,
                    "interpolation" : "LINEAR",
                    "output" : 21
                },
                {
                    "input" : 7,
                    "interpolation" : "LINEAR",
                    "output" : 22
                },
                {
                    "input" : 7,
                    "interpolation" : "LINEAR",
                    "output" : 23
                },
                {
                    "input" : 7,
                    "interpolation" : "LINEAR",
                    "output" : 24
                },
                {
                    "input" : 7,
                    "interpolation" : "LINEAR",
                    "output" : 25
                },
                {
                    "input" : 7,
                    "interpolation" : "LINEAR",
                    "output" : 26
                },
                {
                    "input" : 7,
                    "interpolation" : "LINEAR",
                    "output" : 27
                },
                {
                    "input" : 7,
                    "interpolation" : "LINEAR",
                    "output" : 28
                },
                {
                    "input" : 7,
                    "interpolation" : "LINEAR",
                    "output" : 29
                },
                {
                    "input" : 7,
                    "interpolation" : "LINEAR",
                    "output" : 30
                },
                {
                    "input" : 7,
                    "interpolation" : "LINEAR",
                    "output" : 31
                }
            ]
        }
    ],
    "materials" : [
        {
            "doubleSided" : true,
            "emissiveFactor" : [
                0,
                0,
                0
            ],
            "name" : "Mat_Owl",
            "pbrMetallicRoughness" : {
                "baseColorTexture" : {
                    "index" : 0,
                    "texCoord" : 0
                },
                "metallicFactor" : 0,
                "roughnessFactor" : 0.5
            }
        }
    ],
    "meshes" : [
        {
            "name" : "Owl.005",
            "primitives" : [
                {
                    "attributes" : {
                        "POSITION" : 0,
                        "NORMAL" : 1,
                        "TEXCOORD_0" : 2,
                        "JOINTS_0" : 3,
                        "WEIGHTS_0" : 4
                    },
                    "indices" : 5,
                    "material" : 0
                }
            ]
        }
    ],
    "textures" : [
        {
            "source" : 0
        }
    ],
    "images" : [
        {
            "bufferView" : 6,
            "mimeType" : "image/png",
            "name" : "Tex_Owl"
        }
    ],
    "skins" : [
        {
            "inverseBindMatrices" : 6,
            "joints" : [
                7,
                4,
                0,
                1,
                2,
                3,
                5,
                6
            ],
            "name" : "Rig"
        }
    ],
    "accessors" : [
        {
            "bufferView" : 0,
            "componentType" : 5126,
            "count" : 2037,
            "max" : [
                0.6784411072731018,
                1.8330659866333008,
                0.5247563123703003
            ],
            "min" : [
                -0.6784411072731018,
                0,
                -0.6525855660438538
            ],
            "type" : "VEC3"
        },
        {
            "bufferView" : 1,
            "componentType" : 5126,
            "count" : 2037,
            "type" : "VEC3"
        },
        {
            "bufferView" : 2,
            "componentType" : 5126,
            "count" : 2037,
            "type" : "VEC2"
        },
        {
            "bufferView" : 3,
            "componentType" : 5123,
            "count" : 2037,
            "type" : "VEC4"
        },
        {
            "bufferView" : 4,
            "componentType" : 5126,
            "count" : 2037,
            "type" : "VEC4"
        },
        {
            "bufferView" : 5,
            "componentType" : 5123,
            "count" : 5508,
            "type" : "SCALAR"
        },
        {
            "bufferView" : 7,
            "componentType" : 5126,
            "count" : 8,
            "type" : "MAT4"
        },
        {
            "bufferView" : 8,
            "componentType" : 5126,
            "count" : 11,
            "max" : [
                0.4166666666666667
            ],
            "min" : [
                0
            ],
            "type" : "SCALAR"
        },
        {
            "bufferView" : 9,
            "componentType" : 5126,
            "count" : 11,
            "type" : "VEC3"
        },
        {
            "bufferView" : 10,
            "componentType" : 5126,
            "count" : 11,
            "type" : "VEC4"
        },
        {
            "bufferView" : 11,
            "componentType" : 5126,
            "count" : 11,
            "type" : "VEC3"
        },
        {
            "bufferView" : 12,
            "componentType" : 5126,
            "count" : 11,
            "type" : "VEC3"
        },
        {
            "bufferView" : 13,
            "componentType" : 5126,
            "count" : 11,
            "type" : "VEC4"
        },
        {
            "bufferView" : 14,
            "componentType" : 5126,
            "count" : 11,
            "type" : "VEC3"
        },
        {
            "bufferView" : 15,
            "componentType" : 5126,
            "count" : 11,
            "type" : "VEC3"
        },
        {
            "bufferView" : 16,
            "componentType" : 5126,
            "count" : 11,
            "type" : "VEC4"
        },
        {
            "bufferView" : 17,
            "componentType" : 5126,
            "count" : 11,
            "type" : "VEC3"
        },
        {
            "bufferView" : 18,
            "componentType" : 5126,
            "count" : 11,
            "type" : "VEC3"
        },
        {
            "bufferView" : 19,
            "componentType" : 5126,
            "count" : 11,
            "type" : "VEC4"
        },
        {
            "bufferView" : 20,
            "componentType" : 5126,
            "count" : 11,
            "type" : "VEC3"
        },
        {
            "bufferView" : 21,
            "componentType" : 5126,
            "count" : 11,
            "type" : "VEC3"
        },
        {
            "bufferView" : 22,
            "componentType" : 5126,
            "count" : 11,
            "type" : "VEC4"
        },
        {
            "bufferView" : 23,
            "componentType" : 5126,
            "count" : 11,
            "type" : "VEC3"
        },
        {
            "bufferView" : 24,
            "componentType" : 5126,
            "count" : 11,
            "type" : "VEC3"
        },
        {
            "bufferView" : 25,
            "componentType" : 5126,
            "count" : 11,
            "type" : "VEC4"
        },
        {
            "bufferView" : 26,
            "componentType" : 5126,
            "count" : 11,
            "type" : "VEC3"
        },
        {
            "bufferView" : 27,
            "componentType" : 5126,
            "count" : 11,
            "type" : "VEC3"
        },
        {
            "bufferView" : 28,
            "componentType" : 5126,
            "count" : 11,
            "type" : "VEC4"
        },
        {
            "bufferView" : 29,
            "componentType" : 5126,
            "count" : 11,
            "type" : "VEC3"
        },
        {
            "bufferView" : 30,
            "componentType" : 5126,
            "count" : 11,
            "type" : "VEC3"
        },
        {
            "bufferView" : 31,
            "componentType" : 5126,
            "count" : 11,
            "type" : "VEC4"
        },
        {
            "bufferView" : 32,
            "componentType" : 5126,
            "count" : 11,
            "type" : "VEC3"
        }
    ],
    "bufferViews" : [
        {
            "buffer" : 0,
            "byteLength" : 24444,
            "byteOffset" : 0
        },
        {
            "buffer" : 0,
            "byteLength" : 24444,
            "byteOffset" : 24444
        },
        {
            "buffer" : 0,
            "byteLength" : 16296,
            "byteOffset" : 48888
        },
        {
            "buffer" : 0,
            "byteLength" : 16296,
            "byteOffset" : 65184
        },
        {
            "buffer" : 0,
            "byteLength" : 32592,
            "byteOffset" : 81480
        },
        {
            "buffer" : 0,
            "byteLength" : 11016,
            "byteOffset" : 114072
        },
        {
            "buffer" : 0,
            "byteLength" : 17402,
            "byteOffset" : 125088
        },
        {
            "buffer" : 0,
            "byteLength" : 512,
            "byteOffset" : 142492
        },
        {
            "buffer" : 0,
            "byteLength" : 44,
            "byteOffset" : 143004
        },
        {
            "buffer" : 0,
            "byteLength" : 132,
            "byteOffset" : 143048
        },
        {
            "buffer" : 0,
            "byteLength" : 176,
            "byteOffset" : 143180
        },
        {
            "buffer" : 0,
            "byteLength" : 132,
            "byteOffset" : 143356
        },
        {
            "buffer" : 0,
            "byteLength" : 132,
            "byteOffset" : 143488
        },
        {
            "buffer" : 0,
            "byteLength" : 176,
            "byteOffset" : 143620
        },
        {
            "buffer" : 0,
            "byteLength" : 132,
            "byteOffset" : 143796
        },
        {
            "buffer" : 0,
            "byteLength" : 132,
            "byteOffset" : 143928
        },
        {
            "buffer" : 0,
            "byteLength" : 176,
            "byteOffset" : 144060
        },
        {
            "buffer" : 0,
            "byteLength" : 132,
            "byteOffset" : 144236
        },
        {
            "buffer" : 0,
            "byteLength" : 132,
            "byteOffset" : 144368
        },
        {
            "buffer" : 0,
            "byteLength" : 176,
            "byteOffset" : 144500
        },
        {
            "buffer" : 0,
            "byteLength" : 132,
            "byteOffset" : 144676
        },
        {
            "buffer" : 0,
            "byteLength" : 132,
            "byteOffset" : 144808
        },
        {
            "buffer" : 0,
            "byteLength" : 176,
            "byteOffset" : 144940
        },
        {
            "buffer" : 0,
            "byteLength" : 132,
            "byteOffset" : 145116
        },
        {
            "buffer" : 0,
            "byteLength" : 132,
            "byteOffset" : 145248
        },
        {
            "buffer" : 0,
            "byteLength" : 176,
            "byteOffset" : 145380
        },
        {
            "buffer" : 0,
            "byteLength" : 132,
            "byteOffset" : 145556
        },
        {
            "buffer" : 0,
            "byteLength" : 132,
            "byteOffset" : 145688
        },
        {
            "buffer" : 0,
            "byteLength" : 176,
            "byteOffset" : 145820
        },
        {
            "buffer" : 0,
            "byteLength" : 132,
            "byteOffset" : 145996
        },
        {
            "buffer" : 0,
            "byteLength" : 132,
            "byteOffset" : 146128
        },
        {
            "buffer" : 0,
            "byteLength" : 176,
            "byteOffset" : 146260
        },
        {
            "buffer" : 0,
            "byteLength" : 132,
            "byteOffset" : 146436
        }
    ],
    "buffers" : [
        {
            "byteLength" : 146568,
            "uri" : "data:application/octet-stream;base64,"
        }
    ]
}
