{
    "asset" : {
        "copyright" : "Copyright 2020 Omabuarts Studio. For more info, visit https://omabuarts.com/license",
        "generator" : "Khronos glTF Blender I/O v1.1.46",
        "version" : "2.0"
    },
    "scene" : 0,
    "scenes" : [
        {
            "name" : "Scene",
            "nodes" : [
                6
            ]
        }
    ],
    "nodes" : [
        {
            "name" : "tail.01",
            "rotation" : [
                -0.7900682687759399,
                3.303409457089401e-08,
                -1.4992487251674902e-08,
                0.6130188703536987
            ],
            "scale" : [
                1,
                0.9999998211860657,
                0.9999998807907104
            ],
            "translation" : [
                -4.7254636366531206e-18,
                0.21428966522216797,
                -1.5237458944320679
            ]
        },
        {
            "children" : [
                0
            ],
            "name" : "body",
            "rotation" : [
                0.7519006133079529,
                -1.121417447791373e-08,
                1.121417447791373e-08,
                0.65927654504776
            ],
            "translation" : [
                0,
                0.012759178876876831,
                0.024130169302225113
            ]
        },
        {
            "name" : "arm.L",
            "rotation" : [
                -0.32275092601776123,
                0.07132900506258011,
                -0.8182246088981628,
                0.4703750014305115
            ],
            "scale" : [
                1,
                1,
                1.0000001192092896
            ],
            "translation" : [
                0.48493605852127075,
                -0.5911456346511841,
                0.7958697080612183
            ]
        },
        {
            "name" : "arm.R",
            "rotation" : [
                -0.32275092601776123,
                -0.07132900506258011,
                0.8182246088981628,
                0.4703750014305115
            ],
            "scale" : [
                1,
                1,
                1.0000001192092896
            ],
            "translation" : [
                -0.48493605852127075,
                -0.5911456346511841,
                0.7958697080612183
            ]
        },
        {
            "children" : [
                1,
                2,
                3
            ],
            "name" : "root",
            "rotation" : [
                -0.7071068286895752,
                0,
                0,
                0.7071068286895752
            ]
        },
        {
            "mesh" : 0,
            "name" : "Seal",
            "skin" : 0
        },
        {
            "children" : [
                5,
                4
            ],
            "name" : "Rig",
            "scale" : [
                0.699999988079071,
                0.699999988079071,
                0.699999988079071
            ]
        }
    ],
    "animations" : [
        {
            "channels" : [
                {
                    "sampler" : 0,
                    "target" : {
                        "node" : 4,
                        "path" : "translation"
                    }
                },
                {
                    "sampler" : 1,
                    "target" : {
                        "node" : 4,
                        "path" : "rotation"
                    }
                },
                {
                    "sampler" : 2,
                    "target" : {
                        "node" : 4,
                        "path" : "scale"
                    }
                },
                {
                    "sampler" : 3,
                    "target" : {
                        "node" : 1,
                        "path" : "translation"
                    }
                },
                {
                    "sampler" : 4,
                    "target" : {
                        "node" : 1,
                        "path" : "rotation"
                    }
                },
                {
                    "sampler" : 5,
                    "target" : {
                        "node" : 1,
                        "path" : "scale"
                    }
                },
                {
                    "sampler" : 6,
                    "target" : {
                        "node" : 0,
                        "path" : "translation"
                    }
                },
                {
                    "sampler" : 7,
                    "target" : {
                        "node" : 0,
                        "path" : "rotation"
                    }
                },
                {
                    "sampler" : 8,
                    "target" : {
                        "node" : 0,
                        "path" : "scale"
                    }
                },
                {
                    "sampler" : 9,
                    "target" : {
                        "node" : 2,
                        "path" : "translation"
                    }
                },
                {
                    "sampler" : 10,
                    "target" : {
                        "node" : 2,
                        "path" : "rotation"
                    }
                },
                {
                    "sampler" : 11,
                    "target" : {
                        "node" : 2,
                        "path" : "scale"
                    }
                },
                {
                    "sampler" : 12,
                    "target" : {
                        "node" : 3,
                        "path" : "translation"
                    }
                },
                {
                    "sampler" : 13,
                    "target" : {
                        "node" : 3,
                        "path" : "rotation"
                    }
                },
                {
                    "sampler" : 14,
                    "target" : {
                        "node" : 3,
                        "path" : "scale"
                    }
                }
            ],
            "name" : "Walk",
            "samplers" : [
                {
                    "input" : 8,
                    "interpolation" : "LINEAR",
                    "output" : 9
                },
                {
                    "input" : 8,
                    "interpolation" : "LINEAR",
                    "output" : 10
                },
                {
                    "input" : 8,
                    "interpolation" : "LINEAR",
                    "output" : 11
                },
                {
                    "input" : 8,
                    "interpolation" : "LINEAR",
                    "output" : 12
                },
                {
                    "input" : 8,
                    "interpolation" : "LINEAR",
                    "output" : 13
                },
                {
                    "input" : 8,
                    "interpolation" : "LINEAR",
                    "output" : 14
                },
                {
                    "input" : 8,
                    "interpolation" : "LINEAR",
                    "output" : 15
                },
                {
                    "input" : 8,
                    "interpolation" : "LINEAR",
                    "output" : 16
                },
                {
                    "input" : 8,
                    "interpolation" : "LINEAR",
                    "output" : 17
                },
                {
                    "input" : 8,
                    "interpolation" : "LINEAR",
                    "output" : 18
                },
                {
                    "input" : 8,
                    "interpolation" : "LINEAR",
                    "output" : 19
                },
                {
                    "input" : 8,
                    "interpolation" : "LINEAR",
                    "output" : 20
                },
                {
                    "input" : 8,
                    "interpolation" : "LINEAR",
                    "output" : 21
                },
                {
                    "input" : 8,
                    "interpolation" : "LINEAR",
                    "output" : 22
                },
                {
                    "input" : 8,
                    "interpolation" : "LINEAR",
                    "output" : 23
                }
            ]
        }
    ],
    "materials" : [
        {
            "doubleSided" : true,
            "emissiveFactor" : [
                0,
                0,
                0
            ],
            "name" : "Mat_Seal",
            "pbrMetallicRoughness" : {
                "baseColorTexture" : {
                    "index" : 0,
                    "texCoord" : 0
                },
                "metallicFactor" : 0,
                "roughnessFactor" : 0.5
            }
        }
    ],
    "meshes" : [
        {
            "name" : "Seal.004",
            "primitives" : [
                {
                    "attributes" : {
                        "POSITION" : 0,
                        "NORMAL" : 1,
                        "TEXCOORD_0" : 2,
                        "COLOR_0" : 3,
                        "JOINTS_0" : 4,
                        "WEIGHTS_0" : 5
                    },
                    "indices" : 6,
                    "material" : 0
                }
            ]
        }
    ],
    "textures" : [
        {
            "source" : 0
        }
    ],
    "images" : [
        {
            "bufferView" : 7,
            "mimeType" : "image/png",
            "name" : "Tex_Seal"
        }
    ],
    "skins" : [
        {
            "inverseBindMatrices" : 7,
            "joints" : [
                4,
                1,
                0,
                2,
                3
            ],
            "name" : "Rig"
        }
    ],
    "accessors" : [
        {
            "bufferView" : 0,
            "componentType" : 5126,
            "count" : 1177,
            "max" : [
                1.422497034072876,
                2.196566343307495,
                0.9966420531272888
            ],
            "min" : [
                -1.422497034072876,
                0.011875549331307411,
                -1.8162001371383667
            ],
            "type" : "VEC3"
        },
        {
            "bufferView" : 1,
            "componentType" : 5126,
            "count" : 1177,
            "type" : "VEC3"
        },
        {
            "bufferView" : 2,
            "componentType" : 5126,
            "count" : 1177,
            "type" : "VEC2"
        },
        {
            "bufferView" : 3,
            "componentType" : 5126,
            "count" : 1177,
            "type" : "VEC4"
        },
        {
            "bufferView" : 4,
            "componentType" : 5123,
            "count" : 1177,
            "type" : "VEC4"
        },
        {
            "bufferView" : 5,
            "componentType" : 5126,
            "count" : 1177,
            "type" : "VEC4"
        },
        {
            "bufferView" : 6,
            "componentType" : 5123,
            "count" : 3780,
            "type" : "SCALAR"
        },
        {
            "bufferView" : 8,
            "componentType" : 5126,
            "count" : 5,
            "type" : "MAT4"
        },
        {
            "bufferView" : 9,
            "componentType" : 5126,
            "count" : 11,
            "max" : [
                0.4166666666666667
            ],
            "min" : [
                0
            ],
            "type" : "SCALAR"
        },
        {
            "bufferView" : 10,
            "componentType" : 5126,
            "count" : 11,
            "type" : "VEC3"
        },
        {
            "bufferView" : 11,
            "componentType" : 5126,
            "count" : 11,
            "type" : "VEC4"
        },
        {
            "bufferView" : 12,
            "componentType" : 5126,
            "count" : 11,
            "type" : "VEC3"
        },
        {
            "bufferView" : 13,
            "componentType" : 5126,
            "count" : 11,
            "type" : "VEC3"
        },
        {
            "bufferView" : 14,
            "componentType" : 5126,
            "count" : 11,
            "type" : "VEC4"
        },
        {
            "bufferView" : 15,
            "componentType" : 5126,
            "count" : 11,
            "type" : "VEC3"
        },
        {
            "bufferView" : 16,
            "componentType" : 5126,
            "count" : 11,
            "type" : "VEC3"
        },
        {
            "bufferView" : 17,
            "componentType" : 5126,
            "count" : 11,
            "type" : "VEC4"
        },
        {
            "bufferView" : 18,
            "componentType" : 5126,
            "count" : 11,
            "type" : "VEC3"
        },
        {
            "bufferView" : 19,
            "componentType" : 5126,
            "count" : 11,
            "type" : "VEC3"
        },
        {
            "bufferView" : 20,
            "componentType" : 5126,
            "count" : 11,
            "type" : "VEC4"
        },
        {
            "bufferView" : 21,
            "componentType" : 5126,
            "count" : 11,
            "type" : "VEC3"
        },
        {
            "bufferView" : 22,
            "componentType" : 5126,
            "count" : 11,
            "type" : "VEC3"
        },
        {
            "bufferView" : 23,
            "componentType" : 5126,
            "count" : 11,
            "type" : "VEC4"
        },
        {
            "bufferView" : 24,
            "componentType" : 5126,
            "count" : 11,
            "type" : "VEC3"
        }
    ],
    "bufferViews" : [
        {
            "buffer" : 0,
            "byteLength" : 14124,
            "byteOffset" : 0
        },
        {
            "buffer" : 0,
            "byteLength" : 14124,
            "byteOffset" : 14124
        },
        {
            "buffer" : 0,
            "byteLength" : 9416,
            "byteOffset" : 28248
        },
        {
            "buffer" : 0,
            "byteLength" : 18832,
            "byteOffset" : 37664
        },
        {
            "buffer" : 0,
            "byteLength" : 9416,
            "byteOffset" : 56496
        },
        {
            "buffer" : 0,
            "byteLength" : 18832,
            "byteOffset" : 65912
        },
        {
            "buffer" : 0,
            "byteLength" : 7560,
            "byteOffset" : 84744
        },
        {
            "buffer" : 0,
            "byteLength" : 2813,
            "byteOffset" : 92304
        },
        {
            "buffer" : 0,
            "byteLength" : 320,
            "byteOffset" : 95120
        },
        {
            "buffer" : 0,
            "byteLength" : 44,
            "byteOffset" : 95440
        },
        {
            "buffer" : 0,
            "byteLength" : 132,
            "byteOffset" : 95484
        },
        {
            "buffer" : 0,
            "byteLength" : 176,
            "byteOffset" : 95616
        },
        {
            "buffer" : 0,
            "byteLength" : 132,
            "byteOffset" : 95792
        },
        {
            "buffer" : 0,
            "byteLength" : 132,
            "byteOffset" : 95924
        },
        {
            "buffer" : 0,
            "byteLength" : 176,
            "byteOffset" : 96056
        },
        {
            "buffer" : 0,
            "byteLength" : 132,
            "byteOffset" : 96232
        },
        {
            "buffer" : 0,
            "byteLength" : 132,
            "byteOffset" : 96364
        },
        {
            "buffer" : 0,
            "byteLength" : 176,
            "byteOffset" : 96496
        },
        {
            "buffer" : 0,
            "byteLength" : 132,
            "byteOffset" : 96672
        },
        {
            "buffer" : 0,
            "byteLength" : 132,
            "byteOffset" : 96804
        },
        {
            "buffer" : 0,
            "byteLength" : 176,
            "byteOffset" : 96936
        },
        {
            "buffer" : 0,
            "byteLength" : 132,
            "byteOffset" : 97112
        },
        {
            "buffer" : 0,
            "byteLength" : 132,
            "byteOffset" : 97244
        },
        {
            "buffer" : 0,
            "byteLength" : 176,
            "byteOffset" : 97376
        },
        {
            "buffer" : 0,
            "byteLength" : 132,
            "byteOffset" : 97552
        }
    ],
    "buffers" : [
        {
            "byteLength" : 97684,
            "uri" : "data:application/octet-stream;base64,"
        }
    ]
}
